<ttFont>
<head>
    <!-- Most of this table will be recalculated by the compiler -->
    <tableVersion value="1.0"/>
    <fontRevision value="4.002"/>
    <checkSumAdjustment value="0xe81b4b35"/>
    <magicNumber value="0x5f0f3cf5"/>
    <flags value="00000000 00000011"/>
    <unitsPerEm value="1000"/>
    <created value="Sat Mar  2 13:22:52 2019"/>
    <modified value="Sat Mar  2 13:22:52 2019"/>
    <xMin value="-594"/>
    <yMin value="-616"/>
    <xMax value="2449"/>
    <yMax value="1121"/>
    <macStyle value="00000000 00000000"/>
    <lowestRecPPEM value="3"/>
    <fontDirectionHint value="2"/>
    <indexToLocFormat value="0"/>
    <glyphDataFormat value="0"/>
  </head>
          <CharString index="0">
            rmoveto
            41 541 callgsubr
            -30 -39 608 callsubr
            40 vhcurveto
            return
          </CharString>
          <CharString index="1">
            178 callgsubr
            49 35 33 49 54 30 -37 -44 -44 -32 -39 -52 hvcurveto
            return
          </CharString>
          <CharString index="2">
            -64 callsubr
            224 callsubr
            5 0 8 -1 10 vhcurveto
            -173 hlineto
            return
          </CharString>
          <CharString index="3">
            755 355 rmoveto
            212 -160 149 -201 -200 -162 -149 -212 -212 162 -150 200 200 161 150 212 vhcurveto
            -523 hmoveto
            111 60 70 102 101 61 -70 -111 -109 -61 -71 -101 -102 -60 71 109 vhcurveto
            return
          </CharString>
          <CharString index="4">
            rmoveto
            -59 -26 43 58 hvcurveto
            190 171 -194 vlineto
            -52 -29 -45 -57 vhcurveto
            return
          </CharString>
          <CharString index="5">
            rmoveto
            -33 -26 20 39 40 30 21 43 74 callgsubr
            164 callsubr
            return
          </CharString>
          <CharString index="6">
            -142 -62 callgsubr
            64 131 return
          </CharString>
          <CharString index="7">
            53 296 rmoveto
            -201 128 -102 170 169 140 102 201 vhcurveto
            409 -196 -409 vlineto
            -73 -35 -46 -74 -74 -33 46 73 vhcurveto
            409 -195 vlineto
            return
          </CharString>
          <CharString index="8">
            -98 callsubr
            213 hmoveto
            535 callgsubr
            -45 -34 -35 -46 -45 34 -34 45 hvcurveto
            return
          </CharString>
          <CharString index="9">
            rmoveto
            429 callgsubr
            -45 -34 -35 -46 -45 34 -34 45 hvcurveto
            return
          </CharString>
          <CharString index="10">
            -21 callsubr
            305 callsubr
            414 368 -96 callsubr
            return
          </CharString>
          <CharString index="11">
            rmoveto
            150 return
          </CharString>
          <CharString index="12">
            200 hintmask 0110100010000000
            -88 callsubr
            hintmask 1001010000000000
            -2 callsubr
            hintmask 0101001000000000
            -45 callsubr
            vhcurveto
            hintmask 0101010000000000
            -37 callsubr
            hintmask 0110100010000000
            90 callgsubr
            return
          </CharString>
          <CharString index="13">
            -29 callgsubr
            184 return
          </CharString>
          <CharString index="14">
            590 -96 callsubr
            return
          </CharString>
          <CharString index="15">
            179 23 -53 callgsubr
            return
          </CharString>
          <CharString index="16">
            153 -153 return
          </CharString>
          <CharString index="17">
            150 -75 callgsubr
            return
          </CharString>
          <CharString index="18">
            119 87 83 144 126 -70 104 -130 -61 -46 156 callsubr
            return
          </CharString>
          <CharString index="19">
            308 413 rmoveto
            45 39 -27 -50 hvcurveto
            -173 hlineto
            51 9 33 26 47 hhcurveto
            272 -219 rmoveto
            -209 hlineto
            return
          </CharString>
          <CharString index="20">
            -79 callsubr
            24 39 51 return
          </CharString>
          <CharString index="21">
            -127 -71 callgsubr
            return
          </CharString>
          <CharString index="22">
            rmoveto
            -136 230 rlineto
            -179 hlineto
            131 -230 rlineto
            return
          </CharString>
          <CharString index="23">
            32 -174 vlineto
            -1 -11 0 -11 -11 vvcurveto
            return
          </CharString>
          <CharString index="24">
            -136 81 -96 161 10 callsubr
            return
          </CharString>
          <CharString index="25">
            2 callgsubr
            457 callgsubr
            35 -42 -51 -50 -35 -44 -59 hvcurveto
            return
          </CharString>
          <CharString index="26">
            vhcurveto
            -89 -23 callgsubr
            hlineto
            endchar
          </CharString>
          <CharString index="27">
            rmoveto
            -133 vlineto
            250 98 rlineto
            148 vlineto
            return
          </CharString>
          <CharString index="28">
            -118 174 278 vlineto
            52 return
          </CharString>
          <CharString index="29">
            rmoveto
            -159 77 -161 -77 rlineto
            -131 vlineto
            161 80 159 -80 rlineto
            return
          </CharString>
          <CharString index="30">
            -98 callgsubr
            -1 242 -45 callgsubr
          </CharString>
          <CharString index="31">
            -2 4 -1 6 5 vvcurveto
            20 16 16 22 24 17 -17 -25 -52 -51 -25 -66 -111 -46 66 80 99 75 53 98 vhcurveto
            return
          </CharString>
          <CharString index="32">
            7 12 1 1 16 hvcurveto
            156 vlineto
            return
          </CharString>
          <CharString index="33">
            rmoveto
            -68 -58 46 74 14 2 14 4 12 hvcurveto
            193 -138 rlineto
            -14 -19 -25 -8 -29 hhcurveto
            return
          </CharString>
          <CharString index="34">
            57 -45 45 -69 -70 -45 -45 -57 -57 45 -44 70 69 45 44 57 vhcurveto
            return
          </CharString>
          <CharString index="35">
            -143 75 -109 143 59 44 18 31 31 vhcurveto
            return
          </CharString>
          <CharString index="36">
            159 -159 381 return
          </CharString>
          <CharString index="37">
            272 -59 hlineto
            -68 -27 -50 -106 vhcurveto
            return
          </CharString>
          <CharString index="38">
            319 callsubr
            hintmask 0100100001000000
            -48 callsubr
            hintmask 0010011010000000
            -56 callsubr
            hvcurveto
            hintmask 1000101001000000
            71 callsubr
            hintmask 0101101010000000
            -62 callsubr
          </CharString>
          <CharString index="39">
            -150 -90 callsubr
            return
          </CharString>
          <CharString index="40">
            -7 -8 1 2 -5 hvcurveto
            -141 vlineto
            -6 25 21 -2 23 hhcurveto
            return
          </CharString>
          <CharString index="41">
            152 -144 159 callsubr
            323 511 callsubr
            -88 133 return
          </CharString>
          <CharString index="42">
            -173 -96 -105 -133 -139 97 -109 172 return
          </CharString>
          <CharString index="43">
            -121 79 -98 152 return
          </CharString>
          <CharString index="44">
            205 -106 callsubr
            return
          </CharString>
          <CharString index="45">
            -159 104 rmoveto
            31 24 22 49 vhcurveto
            85 -9 hlineto
            -55 -50 -39 -51 -35 -22 18 32 vhcurveto
            endchar
          </CharString>
          <CharString index="46">
            505 -33 callgsubr
            return
          </CharString>
          <CharString index="47">
            163 -162 116 -116 162 -117 117 hstemhm
            return
          </CharString>
          <CharString index="48">
            -132 -115 -71 -149 return
          </CharString>
          <CharString index="49">
            -2 11 -1 9 10 vvcurveto
            30 16 22 27 31 11 -25 -34 vhcurveto
            -69 return
          </CharString>
          <CharString index="50">
            159 callsubr
            301 36 149 return
          </CharString>
          <CharString index="51">
            32 9 27 24 41 hhcurveto
            45 29 -31 -54 hvcurveto
            -111 hlineto
            -172 -74 -74 -99 return
          </CharString>
          <CharString index="52">
            -17 callsubr
            541 callsubr
            vlineto
            return
          </CharString>
          <CharString index="53">
            -135 -77 -96 -138 return
          </CharString>
          <CharString index="54">
            252 224 rmoveto
            -224 197 224 vlineto
            248 481 rlineto
            -221 hlineto
            -124 -272 -124 272 rlineto
            -224 hlineto
            return
          </CharString>
          <CharString index="55">
            -2 10 -2 10 13 vvcurveto
            35 19 20 29 28 17 -23 -29 -77 -73 -24 -105 vhcurveto
            -84 hlineto
            -4 -27 -1 -25 -26 vvcurveto
            return
          </CharString>
          <CharString index="56">
            -9 -91 callsubr
            219 return
          </CharString>
          <CharString index="57">
            hhcurveto
            -56 -112 61 hlineto
            64 42 -1 -105 65 hvcurveto
            48 -63 -25 0 -91 hhcurveto
            -53 -112 57 hlineto
            return
          </CharString>
          <CharString index="58">
            -124 vlineto
            39 -33 -51 21 -61 hhcurveto
            return
          </CharString>
          <CharString index="59">
            145 -109 94 -160 -145 -105 -91 -124 -26 vhcurveto
            197 hlineto
            return
          </CharString>
          <CharString index="60">
            30 vlineto
            38 18 25 36 34 18 -26 -34 -85 -84 -20 -83 vhcurveto
            return
          </CharString>
          <CharString index="61">
            -69 -23 -48 -54 -91 vvcurveto
            -38 6 -33 7 -21 vhcurveto
            148 hlineto
            -7 23 -5 26 23 vvcurveto
            42 20 25 30 31 18 -32 -42 vhcurveto
            return
          </CharString>
          <CharString index="62">
            371 hlineto
            2 15 1 16 15 vvcurveto
            174 -117 107 -166 return
          </CharString>
          <CharString index="63">
            0 callgsubr
            78 return
          </CharString>
          <CharString index="64">
            12 -11 callsubr
            return
          </CharString>
          <CharString index="65">
            -106 callsubr
            endchar
          </CharString>
          <CharString index="66">
            -67 -58 46 74 14 2 13 4 12 hvcurveto
            return
          </CharString>
          <CharString index="67">
            -2 -13 161 165 134 146 153 hstemhm
            51 190 -173 192 132 192 -174 191 hintmask 11101010
            157 397 rmoveto
            hintmask 11110010
            -68 -36 -38 -60 -82 vvcurveto
            -151 126 -81 149 149 126 81 151 82 -38 60 -68 36 vhcurveto
            hintmask 11101100
            53 29 36 51 73 vvcurveto
            104 -81 92 -177 -177 -81 -92 -104 vhcurveto
            hintmask 11101010
            -74 35 -49 54 -30 vhcurveto
            hintmask 11101100
            169 50 rmoveto
            -37 -29 25 47 47 28 27 38 39 27 -27 -47 -47 -29 -25 -37 hvcurveto
            hintmask 11110010
            -134 vmoveto
            51 33 -33 -50 -46 -30 -36 -54 -54 -31 36 46 51 35 32 50 hvcurveto
            endchar
          </CharString>
          <CharString index="68">
            206 -103 callgsubr
            -142 -20 callsubr
            return
          </CharString>
          <CharString index="69">
            -33 -27 20 39 40 30 21 44 hvcurveto
            47 -48 hlineto
            -42 -18 -30 -43 vhcurveto
            return
          </CharString>
          <CharString index="70">
            -168 434 callgsubr
            -179 119 -109 166 hvcurveto
            return
          </CharString>
          <CharString index="71">
            134 -134 361 36 callsubr
            return
          </CharString>
          <CharString index="72">
            -118 352 callgsubr
            return
          </CharString>
          <CharString index="73">
            181 258 vlineto
            67 28 44 57 49 26 -37 -44 vhcurveto
            return
          </CharString>
          <CharString index="74">
            0 390 -329 1 callgsubr
            214 -33 148 -50 144 60 205 391 callsubr
            -143 152 return
          </CharString>
          <CharString index="75">
            -113 322 callsubr
            86 vlineto
            endchar
          </CharString>
          <CharString index="76">
            94 16 102 callgsubr
            87 return
          </CharString>
          <CharString index="77">
            119 callsubr
            -418 181 -181 418 -393 170 48 175 -111 165 return
          </CharString>
          <CharString index="78">
            -21 590 150 return
          </CharString>
          <CharString index="79">
            -126 74 -102 157 155 76 98 130 vhcurveto
            return
          </CharString>
          <CharString index="80">
            180 -93 callgsubr
          </CharString>
          <CharString index="81">
            rmoveto
            58 -46 45 -58 -57 -45 -45 -58 -56 45 -46 57 58 46 46 56 vhcurveto
            endchar
          </CharString>
          <CharString index="82">
            185 108 182 -146 177 -167 167 return
          </CharString>
          <CharString index="83">
            23 callgsubr
            27 return
          </CharString>
          <CharString index="84">
            -10 callgsubr
            vlineto
            return
          </CharString>
          <CharString index="85">
            26 18 -17 -28 -5 0 -4 -1 -10 hvcurveto
            -16 callgsubr
            return
          </CharString>
          <CharString index="86">
            129 -216 vlineto
            return
          </CharString>
          <CharString index="87">
            151 hstemhm
            58 -66 callsubr
            return
          </CharString>
          <CharString index="88">
            -20 -5 167 158 152 49 224 -158 158 hstemhm
            57 174 -174 188 158 184 hintmask 11101010
            568 521 rmoveto
            113 -8 -68 111 -165 hhcurveto
            -191 -79 -121 -259 -212 54 -158 222 159 95 97 148 153 -89 79 -125 -62 -53 -26 -41 -27 hvcurveto
            hintmask 11011010
            119 1 19 63 65 hhcurveto
            hintmask 11100110
            43 18 -23 -43 9 hvcurveto
            -61 -201 rmoveto
            49 29 -30 -49 -52 -30 -27 -47 -51 -30 28 53 51 35 26 45 hvcurveto
            endchar
          </CharString>
          <CharString index="89">
            25 -7 171 -164 164 431 callgsubr
            return
          </CharString>
          <CharString index="90">
            -197 -301 hlineto
            39 callsubr
            return
          </CharString>
          <CharString index="91">
            458 callsubr
            181 return
          </CharString>
          <CharString index="92">
            178 -127 127 52 542 callgsubr
            327 -43 callgsubr
            688 -627 256 callsubr
            return
          </CharString>
          <CharString index="93">
            389 712 rmoveto
            -216 -141 -148 -210 -211 142 -148 216 184 109 114 103 42 hvcurveto
            190 -366 -141 197 vlineto
            -61 -29 -50 -32 -68 hhcurveto
            -116 -62 65 121 108 60 69 99 hvcurveto
            return
          </CharString>
          <CharString index="94">
            -150 vlineto
            return
          </CharString>
          <CharString index="95">
            15 21 25 8 28 hhcurveto
            return
          </CharString>
          <CharString index="96">
            30 5 33 36 vvcurveto
            return
          </CharString>
          <CharString index="97">
            179 -179 return
          </CharString>
          <CharString index="98">
            hintmask 10100000
            540 hmoveto
            207 hlineto
            hintmask 01100000
            147 callsubr
            hintmask 10100000
            110 callgsubr
            hintmask 01100000
            175 callgsubr
            return
          </CharString>
          <CharString index="99">
            40 541 callgsubr
            -29 -40 -41 486 callsubr
            41 vhcurveto
            return
          </CharString>
          <CharString index="100">
            -78 -39 52 66 hvcurveto
            16 vlineto
            return
          </CharString>
          <CharString index="101">
            rmoveto
            -399 vlineto
            -261 399 rlineto
            -196 -705 196 394 hlineto
            261 -394 rlineto
            196 705 hlineto
            return
          </CharString>
          <CharString index="102">
            -128 -107 -66 -143 -127 92 98 callsubr
            hvcurveto
            return
          </CharString>
          <CharString index="103">
            63 24 37 52 71 vvcurveto
            112 -82 72 -131 -134 -86 -84 -121 vhcurveto
            165 hlineto
            return
          </CharString>
          <CharString index="104">
            62 42 43 66 68 40 -43 -62 -61 -40 -45 -68 return
          </CharString>
          <CharString index="105">
            -23 -11 -21 -21 -38 hhcurveto
            -44 -35 26 65 -4 hvcurveto
            return
          </CharString>
          <CharString index="106">
            146 89 96 136 return
          </CharString>
          <CharString index="107">
            167 252 callgsubr
            return
          </CharString>
          <CharString index="108">
            -102 -81 -49 -104 -146 129 -21 73 hvcurveto
            return
          </CharString>
          <CharString index="109">
            -150 88 -590 return
          </CharString>
          <CharString index="110">
            80 -105 143 61 51 22 39 33 return
          </CharString>
          <CharString index="111">
            38 -8 31 -13 return
          </CharString>
          <CharString index="112">
            675 -18 rmoveto
            -73 -45 46 63 -15 hvcurveto
            102 24 48 76 88 120 callsubr
            -86 -51 -66 -94 vhcurveto
            414 368 -96 callsubr
            return
          </CharString>
          <CharString index="113">
            150 hstemhm
            45 -63 callgsubr
            return
          </CharString>
          <CharString index="114">
            -96 60 -53 61 -19 vhcurveto
            -4 vlineto
            return
          </CharString>
          <CharString index="115">
            144 -144 358 return
          </CharString>
          <CharString index="116">
            46 35 34 45 46 -35 return
          </CharString>
          <CharString index="117">
            -1 callsubr
            vhcurveto
            return
          </CharString>
          <CharString index="118">
            -86 10 159 316 261 -165 165 hstemhm
            31 190 -188 510 -205 198 hintmask 11001000
            33 10 rmoveto
            510 159 -250 hlineto
            hintmask 11010100
            117 81 126 125 152 vvcurveto
            120 -69 99 -174 -135 -121 -75 -186 -6 vhcurveto
            190 hlineto
            hintmask 10110100
            65 -2 25 31 37 hhcurveto
            38 19 -26 -42 hvcurveto
            hintmask 11001000
            -114 -156 -125 -149 -117 vhcurveto
            endchar
          </CharString>
          <CharString index="119">
            -107 callsubr
            640 316 -96 callsubr
            return
          </CharString>
          <CharString index="120">
            178 129 180 return
          </CharString>
          <CharString index="121">
            hhcurveto
            115 59 callgsubr
            return
          </CharString>
          <CharString index="122">
            111 -49 70 -67 36 vhcurveto
            99 vlineto
            return
          </CharString>
          <CharString index="123">
            -261 6 184 callsubr
            193 -125 rlineto
            -1 0 0 -1 vvcurveto
            -33 -13 -28 -24 -47 hhcurveto
            278 304 rmoveto
            -64 vlineto
            -58 -15 -51 -30 -36 -45 -238 153 rcurveline
            1 vlineto
            return
          </CharString>
          <CharString index="124">
            -59 callsubr
            -101 callsubr
            return
          </CharString>
          <CharString index="125">
            -103 -81 -49 -112 -113 92 -42 78 -5 hvcurveto
            return
          </CharString>
          <CharString index="126">
            172 94 108 149 hvcurveto
            return
          </CharString>
          <CharString index="127">
            38 0 callsubr
            return
          </CharString>
          <CharString index="128">
            -151 413 -127 vlineto
            57 callgsubr
            return
          </CharString>
          <CharString index="129">
            563 705 rmoveto
            -513 -158 290 hlineto
            -290 -398 rlineto
            -149 513 159 -293 vlineto
            293 397 rlineto
            return
          </CharString>
          <CharString index="130">
            182 hintmask 01101101
            528 165 195 callsubr
            hintmask 10110101
            -35 callgsubr
            hintmask 01110010
            127 callsubr
            hintmask 01101101
            145 88 74 98 hvcurveto
            return
          </CharString>
          <CharString index="131">
            39 126 -66 183 -49 126 60 469 callsubr
            489 -489 743 -685 90 callsubr
            416 469 callgsubr
            -110 171 -12 184 return
          </CharString>
          <CharString index="132">
            -84 callgsubr
            -104 callgsubr
            return
          </CharString>
          <CharString index="133">
            hstemhm
            55 169 -162 165 -11 -10 callsubr
            279 -160 160 return
          </CharString>
          <CharString index="134">
            181 171 40 callsubr
            return
          </CharString>
          <CharString index="135">
            134 -81 82 -124 -110 -91 -55 -125 vhcurveto
            hintmask 1100000010110000
            -38 6 -33 7 -21 vhcurveto
            148 hlineto
            hintmask 1001101000110000
            -7 23 -5 26 23 vvcurveto
            42 20 25 30 31 18 -32 -42 -105 -76 -52 -146 -121 -43 34 52 vhcurveto
            hintmask 1010101000110000
            36 25 29 52 vhcurveto
            hintmask 1010100100110000
            16 144 hlineto
            hintmask 1010100010110000
            110 callsubr
            vlineto
            endchar
          </CharString>
          <CharString index="136">
            183 -183 276 -264 184 callgsubr
            return
          </CharString>
          <CharString index="137">
            92 527 callsubr
            -14 854 -782 29 callsubr
            99 158 hintmask 1001110000000000
            840 -93 callsubr
            -854 -13 callsubr
            hintmask 1001100010110000
            84 -61 hlineto
            hintmask 1001100001110000
            111 callgsubr
            hintmask 1001101000110000
            -62 -26 -38 -49 -77 vvcurveto
            return
          </CharString>
          <CharString index="138">
            -152 12 97 -97 162 hhcurveto
            84 62 26 41 41 hvcurveto
            -139 180 91 callgsubr
            -718 -13 callsubr
            return
          </CharString>
          <CharString index="139">
            198 callsubr
            75 callsubr
            return
          </CharString>
          <CharString index="140">
            rmoveto
            -33 -26 20 40 38 30 21 630 callsubr
            return
          </CharString>
          <CharString index="141">
            hintmask 11010000
            252 245 rmoveto
            86 45 26 81 vhcurveto
            hintmask 11001000
            55 hlineto
            hintmask 10101000
            209 vlineto
            hintmask 10110000
            -75 -64 -43 -61 -42 hvcurveto
            hintmask 11010000
            99 -196 -561 196 vlineto
            return
          </CharString>
          <CharString index="142">
            339 1 rmoveto
            48 33 34 48 48 34 -34 -49 -49 -35 -31 -47 -48 -33 32 49 vhcurveto
            return
          </CharString>
          <CharString index="143">
            -150 150 402 callsubr
            return
          </CharString>
          <CharString index="144">
            60 callsubr
            225 callgsubr
            return
          </CharString>
          <CharString index="145">
            100 -65 73 -119 -109 -83 -67 -112 vhcurveto
            return
          </CharString>
          <CharString index="146">
            -65 -36 -38 -57 -56 -37 38 65 vhcurveto
            301 return
          </CharString>
          <CharString index="147">
            181 62 282 -184 184 return
          </CharString>
          <CharString index="148">
            167 -146 182 85 169 return
          </CharString>
          <CharString index="149">
            -30 -30 15 35 -10 hvcurveto
            -170 hlineto
            -128 8 100 -74 130 hhcurveto
            return
          </CharString>
          <CharString index="150">
            -38 -25 20 35 -2 hvcurveto
            -162 -256 170 hlineto
            return
          </CharString>
          <CharString index="151">
            543 callsubr
            149 115 157 return
          </CharString>
          <CharString index="152">
            -293 177 -177 354 return
          </CharString>
          <CharString index="153">
            150 70 469 callsubr
            655 -598 155 -129 177 113 181 -181 282 -241 157 -156 156 hintmask 0011100001000000
            641 -93 callsubr
            vlineto
            hintmask 0011110000000000
            -655 -32 callgsubr
            hintmask 0011100110000000
            373 -70 -28 hlineto
            -155 -107 -77 -138 -74 29 -52 42 -33 hvcurveto
            return
          </CharString>
          <CharString index="154">
            140 -260 rlineto
            219 hlineto
            -159 275 rlineto
            105 32 50 80 92 vvcurveto
            126 -88 100 -175 vhcurveto
            return
          </CharString>
          <CharString index="155">
            hintmask 11010000
            473 561 rmoveto
            -445 -163 221 hlineto
            hintmask 11100000
            -223 -243 rlineto
            -155 455 163 -239 vlineto
            hintmask 11010000
            231 243 rlineto
            return
          </CharString>
          <CharString index="156">
            491 callgsubr
            30 25 40 46 20 -34 -35 1 hvcurveto
            -40 -25 -31 -42 vhcurveto
            return
          </CharString>
          <CharString index="157">
            rmoveto
            -86 -46 49 62 -2 hvcurveto
            113 16 38 75 217 callsubr
            return
          </CharString>
          <CharString index="158">
            -76 -54 -46 -117 -20 hvcurveto
            endchar
          </CharString>
          <CharString index="159">
            hhcurveto
            -155 -133 -80 -169 -51 callgsubr
            hvcurveto
            return
          </CharString>
          <CharString index="160">
            192 220 hlineto
            -238 -706 rmoveto
            -62 -1 -42 38 56 vvcurveto
            16 3 15 7 12 vhcurveto
            161 -108 rlineto
            -18 -17 -23 -10 -27 hhcurveto
            hintmask 0011100000100000
            187 vmoveto
            43 5 33 17 22 27 rrcurveto
            -126 vlineto
            -10 -1 -10 -2 -9 vhcurveto
            -144 95 14 6 16 4 19 1 rlinecurve
            endchar
          </CharString>
          <CharString index="161">
            -31 callsubr
            320 -114 vlineto
            25 -24 -35 15 -48 hhcurveto
            return
          </CharString>
          <CharString index="162">
            266 callgsubr
            205 callgsubr
            return
          </CharString>
          <CharString index="163">
            76 54 45 117 20 hvcurveto
            -99 hlineto
            hintmask 01101001
            112 callgsubr
            hintmask 10000001
            225 callsubr
            hintmask 01110001
            51 callsubr
          </CharString>
          <CharString index="164">
            47 vlineto
            65 26 81 204 207 25 -81 -65 vhcurveto
            -8 -93 -23 callgsubr
            590 return
          </CharString>
          <CharString index="165">
            -104 callgsubr
            173 callsubr
            return
          </CharString>
          <CharString index="166">
            181 hlineto
            78 109 78 -109 rlineto
            return
          </CharString>
          <CharString index="167">
            162 callsubr
            -196 return
          </CharString>
          <CharString index="168">
            -143 17 94 -90 158 371 callgsubr
            181 return
          </CharString>
          <CharString index="169">
            34 10 30 16 30 hhcurveto
            48 26 -41 -48 -50 -26 -40 -48 hvcurveto
            return
          </CharString>
          <CharString index="170">
            184 168 477 callsubr
            return
          </CharString>
          <CharString index="171">
            146 hstem
            74 180 return
          </CharString>
          <CharString index="172">
            231 callsubr
            -567 vlineto
            125 callsubr
            66 130 376 callgsubr
            return
          </CharString>
          <CharString index="173">
            -142 142 66 127 55 469 callsubr
            612 -544 176 -153 179 return
          </CharString>
          <CharString index="174">
            -127 -107 -66 -143 return
          </CharString>
          <CharString index="175">
            -50 callsubr
            108 -12 0 -62 108 hvcurveto
            return
          </CharString>
          <CharString index="176">
            -131 -99 -74 -129 -8 hvcurveto
            170 hlineto
            return
          </CharString>
          <CharString index="177">
            138 -90 82 -111 27 vhcurveto
            63 vlineto
            return
          </CharString>
          <CharString index="178">
            -103 80 -60 99 75 76 34 54 28 vhcurveto
            return
          </CharString>
          <CharString index="179">
            206 callgsubr
            395 -154 154 return
          </CharString>
          <CharString index="180">
            134 -53 111 -165 return
          </CharString>
          <CharString index="181">
            184 -173 288 callsubr
            293 575 callgsubr
            return
          </CharString>
          <CharString index="182">
            368 callgsubr
            148 return
          </CharString>
          <CharString index="183">
            83 234 -234 452 216 callsubr
            -14 return
          </CharString>
          <CharString index="184">
            -150 6 callsubr
            return
          </CharString>
          <CharString index="185">
            0 19 callgsubr
            return
          </CharString>
          <CharString index="186">
            205 198 callsubr
            return
          </CharString>
          <CharString index="187">
            -96 callsubr
            -591 -13 callsubr
            hintmask 1011110010100000
            314 -60 -58 hlineto
            hintmask 1011110001000000
            1 callsubr
            hintmask 1101110010010000
            -36 callgsubr
            hintmask 1011110100000000
            -36 -37 16 42 -3 hvcurveto
            -180 hlineto
            return
          </CharString>
          <CharString index="188">
            390 callsubr
            258 vlineto
            return
          </CharString>
          <CharString index="189">
            140 89 78 138 hvcurveto
            return
          </CharString>
          <CharString index="190">
            -4 hlineto
            82 -50 -72 26 -72 hhcurveto
            -127 -105 -90 -145 -146 106 -89 126 return
          </CharString>
          <CharString index="191">
            -68 callsubr
            59 return
          </CharString>
          <CharString index="192">
            hhcurveto
            127 103 74 134 129 -97 76 -133 572 callgsubr
            hvcurveto
            return
          </CharString>
          <CharString index="193">
            306 -106 callsubr
            return
          </CharString>
          <CharString index="194">
            rmoveto
            372 callgsubr
            hintmask 11110000
            -45 -34 -35 -46 hvcurveto
            hintmask 11101000
            -45 34 -34 45 vhcurveto
            hintmask 11100010
            213 hmoveto
            hintmask 11100001
            535 callgsubr
            hvcurveto
            hintmask 11100010
            422 callgsubr
          </CharString>
          <CharString index="195">
            30 23 23 32 31 22 -22 -34 -35 -30 -22 -42 vhcurveto
            return
          </CharString>
          <CharString index="196">
            -157 121 -102 173 vhcurveto
            return
          </CharString>
          <CharString index="197">
            492 -477 288 callsubr
            return
          </CharString>
          <CharString index="198">
            175 86 180 return
          </CharString>
          <CharString index="199">
            157 237 174 -164 164 return
          </CharString>
          <CharString index="200">
            -128 vlineto
            57 callgsubr
            return
          </CharString>
          <CharString index="201">
            80 -196 -561 196 301 vlineto
            65 36 38 58 56 36 -38 -65 vhcurveto
            return
          </CharString>
          <CharString index="202">
            hlineto
            225 143 149 204 207 -143 145 -225 hvcurveto
            -83 return
          </CharString>
          <CharString index="203">
            375 callsubr
            -50 -39 24 47 44 35 26 41 hvcurveto
            return
          </CharString>
          <CharString index="204">
            -73 -33 41 57 60 42 36 74 89 24 -53 -37 hvcurveto
            -36 vlineto
            return
          </CharString>
          <CharString index="205">
            -6 callgsubr
            77 90 144 return
          </CharString>
          <CharString index="206">
            -63 callgsubr
            88 181 return
          </CharString>
          <CharString index="207">
            150 -144 153 hstemhm
            return
          </CharString>
          <CharString index="208">
            -106 -108 -179 hvcurveto
            return
          </CharString>
          <CharString index="209">
            335 705 rmoveto
            -279 -705 279 95 callsubr
            -532 rmoveto
            362 68 vlineto
            113 71 -65 -117 -116 -71 -64 -113 hvcurveto
            return
          </CharString>
          <CharString index="210">
            -399 568 72 84 134 hstemhm
            45 166 -98 98 hintmask 11100000
            45 858 rmoveto
            -134 vlineto
            hintmask 11010000
            68 -14 hlineto
            -48 -20 -22 -34 vhcurveto
            -72 vlineto
            hintmask 11100000
            104 48 70 94 223 callsubr
            endchar
          </CharString>
          <CharString index="211">
            -89 callgsubr
            -358 8 callsubr
            368 callgsubr
            return
          </CharString>
          <CharString index="212">
            291 -96 callsubr
            return
          </CharString>
          <CharString index="213">
            321 195 -82 callsubr
            226 callgsubr
            -692 -150 429 -124 hlineto
            39 -33 -51 21 -61 hhcurveto
            -142 -81 -101 -132 return
          </CharString>
          <CharString index="214">
            -36 -31 18 53 -4 hvcurveto
            -209 hlineto
            -151 8 122 -75 157 hhcurveto
            return
          </CharString>
          <CharString index="215">
            vvcurveto
            133 -104 44 -104 vhcurveto
            -44 hlineto
            -25 -20 10 24 25 23 9 26 hvcurveto
            return
          </CharString>
          <CharString index="216">
            rmoveto
            416 132 -416 hlineto
            return
          </CharString>
          <CharString index="217">
            -20 hlineto
            -47 -16 29 41 hvcurveto
            53 return
          </CharString>
          <CharString index="218">
            32 6 15 14 24 hhcurveto
            return
          </CharString>
          <CharString index="219">
            -150 76 -190 vlineto
            return
          </CharString>
          <CharString index="220">
            304 150 hstem
            62 175 vstem
            632 callgsubr
            68 vlineto
            203 -127 rlineto
            -34 -14 -31 -25 -53 hhcurveto
            261 304 -96 callsubr
            -617 -23 callsubr
            return
          </CharString>
          <CharString index="221">
            631 25 rmoveto
            -100 callgsubr
            -1214 -150 578 -96 -272 99 callgsubr
            return
          </CharString>
          <CharString index="222">
            13 callgsubr
            158 -90 callsubr
            return
          </CharString>
          <CharString index="223">
            124 callgsubr
            hvcurveto
            return
          </CharString>
          <CharString index="224">
            -71 callsubr
            556 callsubr
            -184 301 36 149 return
          </CharString>
          <CharString index="225">
            182 119 566 callgsubr
            -181 181 return
          </CharString>
          <CharString index="226">
            144 callgsubr
            -14 485 return
          </CharString>
          <CharString index="227">
            vvcurveto
            71 409 callgsubr
            return
          </CharString>
          <CharString index="228">
            -27 149 vlineto
            return
          </CharString>
          <CharString index="229">
            114 -88 81 -144 -142 -85 -84 -120 -82 45 -61 74 -50 vhcurveto
            -198 -154 rlineto
            -22 return
          </CharString>
          <CharString index="230">
            -114 178 590 85 150 -630 -150 367 -124 vlineto
            39 -33 -50 21 -61 hhcurveto
            return
          </CharString>
          <CharString index="231">
            -122 -54 vlineto
            -73 callgsubr
            return
          </CharString>
          <CharString index="232">
            204 callgsubr
            447 callsubr
            return
          </CharString>
          <CharString index="233">
            342 267 334 callsubr
            269 hmoveto
            150 return
          </CharString>
          <CharString index="234">
            -41 -31 20 37 -5 642 callsubr
            -112 8 104 -84 156 hhcurveto
            return
          </CharString>
          <CharString index="235">
            136 -136 -89 callgsubr
            return
          </CharString>
          <CharString index="236">
            183 callsubr
            28 44 return
          </CharString>
          <CharString index="237">
            -590 73 callgsubr
            return
          </CharString>
          <CharString index="238">
            316 -55 -64 hlineto
            -102 -59 -53 -75 return
          </CharString>
          <CharString index="239">
            100 64 131 4 callsubr
            26 return
          </CharString>
          <CharString index="240">
            164 -164 171 return
          </CharString>
          <CharString index="241">
            142 142 return
          </CharString>
          <CharString index="242">
            155 -147 158 callgsubr
            -95 629 callgsubr
            -358 8 callsubr
            36 callsubr
            return
          </CharString>
          <CharString index="243">
            292 callsubr
            42 527 callsubr
            58 29 callsubr
            253 174 129 182 return
          </CharString>
          <CharString index="244">
            259 -210 rmoveto
            590 87 317 callsubr
          </CharString>
          <CharString index="245">
            153 hstemhm
            49 41 callsubr
            return
          </CharString>
          <CharString index="246">
            -143 84 -73 140 152 65 98 127 vhcurveto
            return
          </CharString>
          <CharString index="247">
            112 17 38 79 338 callsubr
            return
          </CharString>
          <CharString index="248">
            -98 -60 -65 -96 -57 -34 19 37 286 callsubr
            return
          </CharString>
          <CharString index="249">
            -12 vlineto
            -30 -15 -24 -31 -34 -15 26 31 vhcurveto
            return
          </CharString>
          <CharString index="250">
            hhcurveto
            63 47 19 32 32 hvcurveto
            -199 180 return
          </CharString>
          <CharString index="251">
            181 callsubr
            hvcurveto
            return
          </CharString>
          <CharString index="252">
            78 hlineto
            21 12 -6 -15 -14 -12 -7 -21 hvcurveto
            return
          </CharString>
          <CharString index="253">
            -78 196 561 -196 vlineto
            return
          </CharString>
          <CharString index="254">
            -256 705 rlineto
            -226 hlineto
            return
          </CharString>
          <CharString index="255">
            100 0 265 615 callsubr
            return
          </CharString>
          <CharString index="256">
            -50 -13 -63 -44 -86 vvcurveto
            -129 return
          </CharString>
          <CharString index="257">
            0 158 callgsubr
            return
          </CharString>
          <CharString index="258">
            -135 177 313 vlineto
            return
          </CharString>
          <CharString index="259">
            533 50 rmoveto
            -83 -43 41 64 -23 hvcurveto
            105 15 61 80 97 vvcurveto
            71 -21 callsubr
            -88 -58 -64 -88 vhcurveto
            414 368 -96 callsubr
            -1366 -150 84 -61 vlineto
            return
          </CharString>
          <CharString index="260">
            136.5 -136.5 236 -236 313 return
          </CharString>
          <CharString index="261">
            103 -5 288 callsubr
            262 193 262 575 callsubr
            return
          </CharString>
          <CharString index="262">
            4 callsubr
            26 vhcurveto
            return
          </CharString>
          <CharString index="263">
            -23 -38 -28 hvcurveto
            129 return
          </CharString>
          <CharString index="264">
            -6 -11 1 1 -10 hvcurveto
            return
          </CharString>
          <CharString index="265">
            0 189 callsubr
            return
          </CharString>
          <CharString index="266">
            184 -184 return
          </CharString>
          <CharString index="267">
            134 -52 111 -162 -147 -71 -85 -109 -12 2 -14 2 -12 vhcurveto
            176 hlineto
            return
          </CharString>
          <CharString index="268">
            405 callsubr
            1 300 callsubr
            return
          </CharString>
          <CharString index="269">
            hstemhm
            56 196 return
          </CharString>
          <CharString index="270">
            265 163 hstem
            36 453 vstem
            36 265 rmoveto
            453 163 -453 hlineto
            endchar
          </CharString>
          <CharString index="271">
            -19 -30 -43 vhcurveto
            return
          </CharString>
          <CharString index="272">
            -15 86 callsubr
            return
          </CharString>
          <CharString index="273">
            -122 78 -96 149 135 78 84 129 4 0 9 -1 11 vhcurveto
            -173 hlineto
            return
          </CharString>
          <CharString index="274">
            427 callsubr
            73 callgsubr
            return
          </CharString>
          <CharString index="275">
            177 96 77 129 101 -67 68 -119 hvcurveto
            return
          </CharString>
          <CharString index="276">
            -38 vlineto
            -54 -13 -44 -47 -21 vhcurveto
            37 -42 -61 24 return
          </CharString>
          <CharString index="277">
            -121 80 -98 150 138 81 77 119 return
          </CharString>
          <CharString index="278">
            150 174 callgsubr
            return
          </CharString>
          <CharString index="279">
            40 25 -24 -27 5 hvcurveto
            173 hlineto
            return
          </CharString>
          <CharString index="280">
            78 113 callgsubr
            return
          </CharString>
          <CharString index="281">
            -153 -132 -74 -172 return
          </CharString>
          <CharString index="282">
            57 -7 184 528 -20 return
          </CharString>
          <CharString index="283">
            -328 71 84 135 return
          </CharString>
          <CharString index="284">
            -156 85 -119 return
          </CharString>
          <CharString index="285">
            151 -151 return
          </CharString>
          <CharString index="286">
            -73 -86 rlineto
            158 hlineto
            72 87 rlineto
            96 -12 -97 68 -124 hhcurveto
            -12 -12 -1 -1 -11 hvcurveto
            -11 8 -6 517 callgsubr
            return
          </CharString>
          <CharString index="287">
            174 -174 277 -212 171 return
          </CharString>
          <CharString index="288">
            354 callsubr
            67 callsubr
            return
          </CharString>
          <CharString index="289">
            -21 49 567 callsubr
            return
          </CharString>
          <CharString index="290">
            81 callsubr
            67 return
          </CharString>
          <CharString index="291">
            rmoveto
            -72 -33 47 71 hvcurveto
            66 vlineto
            return
          </CharString>
          <CharString index="292">
            154 163 -91 callsubr
            384 -43 callgsubr
            977 -916 177 163 176 42 174 -174 358 -237 176 return
          </CharString>
          <CharString index="293">
            196 230 hlineto
            155 -230 rlineto
            239 hlineto
            -225 279 221 282 rlineto
            -235 hlineto
            -155 -220 rlineto
            399 -196 vlineto
            endchar
          </CharString>
          <CharString index="294">
            -72 callsubr
            81 callsubr
            return
          </CharString>
          <CharString index="295">
            117 vlineto
            -30 31 47 -18 55 hhcurveto
            99 80 64 108 53 -19 38 -29 27 hvcurveto
            return
          </CharString>
          <CharString index="296">
            222 -201 -21 return
          </CharString>
          <CharString index="297">
            -7 266 callgsubr
            201 -194 164 -164 330 -88 88 -88 319 -319 326 -171 164 -148 155 199 callgsubr
            return
          </CharString>
          <CharString index="298">
            439 callgsubr
            -100 51 -77 81 -29 hvcurveto
            139 callgsubr
            return
          </CharString>
          <CharString index="299">
            72 callgsubr
            171 181 return
          </CharString>
          <CharString index="300">
            42 vvcurveto
            34 1 25 28 39 hhcurveto
            41 -1 22 -31 -33 vvcurveto
            return
          </CharString>
          <CharString index="301">
            -350 -144 vlineto
            -14 10 -17 9 -19 5 rrcurveto
            4 vlineto
            return
          </CharString>
          <CharString index="302">
            rmoveto
            -1 213 -299 -64 80 vvcurveto
            21 17 13 32 vhcurveto
            return
          </CharString>
          <CharString index="303">
            216 484 rmoveto
            -144 47 vlineto
            54 24 -30 -35 hvcurveto
            return
          </CharString>
          <CharString index="304">
            -125 77 -63 102 vhcurveto
            return
          </CharString>
          <CharString index="305">
            -151 151 return
          </CharString>
          <CharString index="306">
            -140 146 158 248 callsubr
            983 -922 63 callsubr
            return
          </CharString>
          <CharString index="307">
            166 104 101 153 hvcurveto
            -171 hlineto
            -58 -39 -40 -63 -66 -41 42 59 70 55 36 66 vhcurveto
            398 hlineto
            29 29 -8 -32 -26 -23 -10 -34 hvcurveto
            return
          </CharString>
          <CharString index="308">
            402 27 rmoveto
            -76 -46 38 50 -9 hvcurveto
            112 22 37 83 98 vvcurveto
            77 445 callgsubr
            return
          </CharString>
          <CharString index="309">
            76 callsubr
            922 -861 184 168 174 152 183 return
          </CharString>
          <CharString index="310">
            480 callsubr
            37 50 2 vhcurveto
            43 20 -27 -27 7 hvcurveto
            return
          </CharString>
          <CharString index="311">
            -9 153 -144 210 return
          </CharString>
          <CharString index="312">
            53 145 -61 hlineto
            return
          </CharString>
          <CharString index="313">
            120 -2 277 callsubr
            -14 391 -329 149 -149 329 61 152 -31 210 -88 88 -88 133 return
          </CharString>
          <CharString index="314">
            140 -140 187 50 251 -135 135 67 127 55 469 callsubr
            612 -544 168 -145 179 46 172 return
          </CharString>
          <CharString index="315">
            170 rmoveto
            -55 -27 27 33 -9 hvcurveto
            78 15 41 50 60 vvcurveto
            99 -75 63 -152 vhcurveto
            -254 73 570 -287 hlineto
            -89 -55 -44 -62 vhcurveto
            return
          </CharString>
          <CharString index="316">
            -138 -79 callgsubr
          </CharString>
          <CharString index="317">
            237 hlineto
            -272 363 259 342 rlineto
            -226 hlineto
            -219 -304 rlineto
            304 -196 -705 196 309 vlineto
            endchar
          </CharString>
          <CharString index="318">
            278 callgsubr
            533 callsubr
            hvcurveto
            return
          </CharString>
          <CharString index="319">
            -91 callsubr
            237 -237 441 158 469 callsubr
            557 return
          </CharString>
          <CharString index="320">
            45 63 -22 77 333 callsubr
            vlineto
            return
          </CharString>
          <CharString index="321">
            167 231 163 -163 299 hstemhm
            87 197 -197 299 return
          </CharString>
          <CharString index="322">
            -72 callsubr
            390 callsubr
            vlineto
            return
          </CharString>
          <CharString index="323">
            222 callgsubr
            -104 callgsubr
            return
          </CharString>
          <CharString index="324">
            338 callsubr
            305 callsubr
            return
          </CharString>
          <CharString index="325">
            424 callgsubr
            12 -40 21 -32 hvcurveto
            return
          </CharString>
          <CharString index="326">
            275 callsubr
            105 vlineto
            return
          </CharString>
          <CharString index="327">
            124 150 -612 -32 callgsubr
            return
          </CharString>
          <CharString index="328">
            75 241 callsubr
            hlineto
            return
          </CharString>
          <CharString index="329">
            -150 377 callgsubr
            return
          </CharString>
          <CharString index="330">
            39 -6 43 -16 44 hvcurveto
            return
          </CharString>
          <CharString index="331">
            137 498 callgsubr
            return
          </CharString>
          <CharString index="332">
            -40 -35 46 -62 hhcurveto
            return
          </CharString>
          <CharString index="333">
            -44 -26 -34 -45 vhcurveto
            return
          </CharString>
          <CharString index="334">
            -36 299 callgsubr
            28 vlineto
            155 -60 119 -192 -188 -68 -115 -159 vhcurveto
            return
          </CharString>
          <CharString index="335">
            147 -50 576 callgsubr
            322 555 callsubr
            98 92 callsubr
            return
          </CharString>
          <CharString index="336">
            579 callgsubr
            -12 153 -7 178 -89 160 42 180 -147 166 -156 156 return
          </CharString>
          <CharString index="337">
            -62 -26 -38 -49 -77 vvcurveto
            -111 77 -67 121 -29 vhcurveto
            -104 -133 rlineto
            59 callsubr
            183 hlineto
            return
          </CharString>
          <CharString index="338">
            377 callsubr
            50 callgsubr
            return
          </CharString>
          <CharString index="339">
            -83 39 81 -35 99 hhcurveto
            42 141 -16 hlineto
            -73 -35 41 57 60 572 callsubr
            -336 305 callgsubr
            endchar
          </CharString>
          <CharString index="340">
            80 175 -80 175 rlineto
            -180 hlineto
            84 -175 -84 -175 rlineto
            return
          </CharString>
          <CharString index="341">
            -77 -87 258 -191 133 97 532 callgsubr
            return
          </CharString>
          <CharString index="342">
            149 36 301 45 callsubr
            -245 184 return
          </CharString>
          <CharString index="343">
            -38 vlineto
            45 callgsubr
            return
          </CharString>
          <CharString index="344">
            -147 240 -219 -21 103 137 return
          </CharString>
          <CharString index="345">
            -75 62 -42 93 38 36 6 10 31 vhcurveto
            return
          </CharString>
          <CharString index="346">
            -103 -71 -48 -90 -11 1 -15 3 -14 hvcurveto
            return
          </CharString>
          <CharString index="347">
            hhcurveto
            321 callsubr
            return
          </CharString>
          <CharString index="348">
            hmoveto
            197 561 -197 return
          </CharString>
          <CharString index="349">
            38 111 -321 return
          </CharString>
          <CharString index="350">
            -267 -158 hlineto
            -70 callgsubr
            158 -446 -158 vlineto
            -70 callgsubr
            return
          </CharString>
          <CharString index="351">
            144 -144 32 callgsubr
            127 159 callgsubr
            return
          </CharString>
          <CharString index="352">
            -309 423 282 hstem
            56 246 vstem
            187 423 rmoveto
            246 callsubr
            endchar
          </CharString>
          <CharString index="353">
            115 282 rlineto
            -198 hlineto
            -48 -282 rlineto
            return
          </CharString>
          <CharString index="354">
            173 93 141 71 239 -181 181 return
          </CharString>
          <CharString index="355">
            -89 callgsubr
            -43 callgsubr
            return
          </CharString>
          <CharString index="356">
            237 rmoveto
            -43 -31 18 37 31 22 23 46 hvcurveto
            return
          </CharString>
          <CharString index="357">
            141 -372 -141 return
          </CharString>
          <CharString index="358">
            -13 -12 -1 -1 -12 hvcurveto
            return
          </CharString>
          <CharString index="359">
            139 149 return
          </CharString>
          <CharString index="360">
            299 -234 145 -62 592 -371 140 -140 153 -153 72 callgsubr
            return
          </CharString>
          <CharString index="361">
            rmoveto
            -51 -1 -33 34 45 vvcurveto
            43 28 32 49 5 vhcurveto
            38 5 30 13 22 22 rrcurveto
            -117 vlineto
            -44 -31 -36 -52 -1 vhcurveto
            return
          </CharString>
          <CharString index="362">
            179 -179 505 -381 77 callgsubr
            return
          </CharString>
          <CharString index="363">
            175 67 43 callgsubr
            return
          </CharString>
          <CharString index="364">
            241 callgsubr
            endchar
          </CharString>
          <CharString index="365">
            278 vlineto
            52 25 return
          </CharString>
          <CharString index="366">
            447 -86 rmoveto
            -75 -49 36 64 -6 hvcurveto
            112 18 33 80 95 vvcurveto
            75 132 -216 vlineto
            -86 -52 -66 -95 vhcurveto
            return
          </CharString>
          <CharString index="367">
            -31 callsubr
            535 vlineto
            3 9 6 0 7 hhcurveto
            38 18 -26 -34 -85 -84 -20 -82 hvcurveto
            -12 hlineto
            return
          </CharString>
          <CharString index="368">
            735 413 rmoveto
            55 47 -28 -55 1 hvcurveto
            -208 hlineto
            60 11 44 23 50 hhcurveto
            290 -219 rmoveto
            -209 hlineto
            return
          </CharString>
          <CharString index="369">
            162 126 96 160 hvcurveto
            return
          </CharString>
          <CharString index="370">
            -109 -28 -88 -82 -136 vvcurveto
            return
          </CharString>
          <CharString index="371">
            79 callsubr
            -140 return
          </CharString>
          <CharString index="372">
            64 54 20 36 32 hvcurveto
            -105 vlineto
            return
          </CharString>
          <CharString index="373">
            299 -20 callgsubr
            return
          </CharString>
          <CharString index="374">
            hlineto
            204 callgsubr
            -141 112 -77 505 callsubr
            return
          </CharString>
          <CharString index="375">
            -13 -31 hlineto
            -106 -79 -56 -107 -92 396 callgsubr
            return
          </CharString>
          <CharString index="376">
            288 callgsubr
            640 callsubr
            -11 234 -234 452 -371 153 68 -16 callsubr
            return
          </CharString>
          <CharString index="377">
            -2 11 -1 8 10 vvcurveto
            28 16 22 29 35 13 -24 -35 vhcurveto
            return
          </CharString>
          <CharString index="378">
            -1 26 19 0 21 hhcurveto
            44 27 -15 -35 -27 -19 -20 -37 hvcurveto
            return
          </CharString>
          <CharString index="379">
            132 -69 102 -131 -64 -49 -23 -37 -31 vhcurveto
            128 vlineto
            return
          </CharString>
          <CharString index="380">
            130 -70 104 -130 -61 -46 -23 -38 -28 vhcurveto
            129 vlineto
            return
          </CharString>
          <CharString index="381">
            90 144 hvcurveto
            38 112 -321 181 return
          </CharString>
          <CharString index="382">
            vvcurveto
            238 callsubr
            return
          </CharString>
          <CharString index="383">
            -95 vlineto
            -51 -21 -28 -39 -39 -20 28 51 vhcurveto
            return
          </CharString>
          <CharString index="384">
            206 -103 callgsubr
            9 -20 hstemhm
            return
          </CharString>
          <CharString index="385">
            hlineto
            264 callgsubr
            return
          </CharString>
          <CharString index="386">
            -347 121 callgsubr
            return
          </CharString>
          <CharString index="387">
            -22 198 callgsubr
            return
          </CharString>
          <CharString index="388">
            hlineto
            -56 -19 27 43 hvcurveto
            29 return
          </CharString>
          <CharString index="389">
            135 -126 126 return
          </CharString>
          <CharString index="390">
            -1 -6 0 -7 -7 vvcurveto
            return
          </CharString>
          <CharString index="391">
            -22 -17 -30 -18 -49 hhcurveto
            return
          </CharString>
          <CharString index="392">
            573 590 rmoveto
            return
          </CharString>
          <CharString index="393">
            40 35 16 51 vhcurveto
            return
          </CharString>
          <CharString index="394">
            -38 rmoveto
            -135 vlineto
            return
          </CharString>
          <CharString index="395">
            180 -180 return
          </CharString>
          <CharString index="396">
            326 169 rmoveto
            -69 -60 44 74 15 2 14 4 12 hvcurveto
            191 -138 rlineto
            -13 -19 -23 -8 -26 hhcurveto
            return
          </CharString>
          <CharString index="397">
            0 490 -489 141 -92 178 callsubr
            440 -154 154 -103 callgsubr
            100 150 hstemhm
            return
          </CharString>
          <CharString index="398">
            -129 312 callgsubr
          </CharString>
          <CharString index="399">
            -21 72 150 return
          </CharString>
          <CharString index="400">
            -31 callsubr
            681 -123 vlineto
            38 -34 -50 21 -60 hhcurveto
            -64 -48 -20 -35 -34 hvcurveto
            return
          </CharString>
          <CharString index="401">
            543 callgsubr
            332 -43 callgsubr
            488 -420 176 -153 179 46 172 return
          </CharString>
          <CharString index="402">
            -147 13 96 -96 162 hhcurveto
            82 -22 callgsubr
            return
          </CharString>
          <CharString index="403">
            hlineto
            -51 -20 -28 -38 -40 -18 28 45 -2 vhcurveto
            -2 3 rlineto
            return
          </CharString>
          <CharString index="404">
            -57 47 72 -32 94 371 callgsubr
            return
          </CharString>
          <CharString index="405">
            118 -182 -123 vlineto
            486 callgsubr
            return
          </CharString>
          <CharString index="406">
            159 hhcurveto
            84 151 callgsubr
            180 vlineto
            return
          </CharString>
          <CharString index="407">
            -14 2 -14 vhcurveto
            162 hlineto
            -2 10 -2 10 13 vvcurveto
            35 return
          </CharString>
          <CharString index="408">
            241 -239 173 -173 240 -174 173 return
          </CharString>
          <CharString index="409">
            -51 callsubr
            -210 189 callsubr
            return
          </CharString>
          <CharString index="410">
            150 callgsubr
            81 callsubr
            return
          </CharString>
          <CharString index="411">
            -270 -740 vlineto
            endchar
          </CharString>
          <CharString index="412">
            -86 -52 -66 -94 vhcurveto
            return
          </CharString>
          <CharString index="413">
            rmoveto
            -83 -46 46 58 -4 hvcurveto
            103 17 49 77 94 vvcurveto
            79 127 -219 vlineto
            -86 -50 -66 -96 vhcurveto
            return
          </CharString>
          <CharString index="414">
            -419 -98 callgsubr
            return
          </CharString>
          <CharString index="415">
            667 -93 callsubr
            -681 -150 89 vlineto
            1 -323 rlineto
            -146 87 -102 171 vhcurveto
            return
          </CharString>
          <CharString index="416">
            184 callsubr
            193 -125 rlineto
            -1 -1 -1 -2 vvcurveto
            -32 -13 -28 -23 -46 hhcurveto
            return
          </CharString>
          <CharString index="417">
            621 380 rmoveto
            -422 -400 rlineto
            207 hlineto
            215 217 rlineto
            393 vmoveto
            150 vlineto
            return
          </CharString>
          <CharString index="418">
            -31 callsubr
            467 -42 vlineto
            -51 -4 -41 -29 -23 vhcurveto
            50 -37 -62 30 -79 hhcurveto
            return
          </CharString>
          <CharString index="419">
            204 -202 rmoveto
            -75 -47 -42 -55 -55 -47 41 76 75 47 41 55 55 47 -40 -76 vhcurveto
            endchar
          </CharString>
          <CharString index="420">
            242 142 rmoveto
            -52 -32 33 49 49 34 33 51 53 31 -37 -44 -44 -33 -39 -52 hvcurveto
            endchar
          </CharString>
          <CharString index="421">
            171 431 callgsubr
            return
          </CharString>
          <CharString index="422">
            41 callsubr
            86 return
          </CharString>
          <CharString index="423">
            88 130 callsubr
            return
          </CharString>
          <CharString index="424">
            150 304 callsubr
          </CharString>
          <CharString index="425">
            250 98 rlineto
            148 vlineto
            endchar
          </CharString>
          <CharString index="426">
            rmoveto
            196 330 hlineto
            return
          </CharString>
          <CharString index="427">
            -44 -60 -27 hvcurveto
            -3 hlineto
            return
          </CharString>
          <CharString index="428">
            61 51 22 39 33 hvcurveto
            return
          </CharString>
          <CharString index="429">
            177 590 return
          </CharString>
          <CharString index="430">
            -150 413 return
          </CharString>
          <CharString index="431">
            388 callsubr
            65 180 return
          </CharString>
          <CharString index="432">
            -53 -38 -32 -59 -78 vvcurveto
            -143 100 -90 150 135 98 74 125 10 vhcurveto
            -173 hlineto
            return
          </CharString>
          <CharString index="433">
            35 14 -29 -31 -3 hvcurveto
            153 hlineto
            110 11 -57 87 -115 hhcurveto
            -102 -42 -65 -64 -10 hvcurveto
            return
          </CharString>
          <CharString index="434">
            -47 -31 -30 -43 -48 -32 31 49 54 40 34 61 vhcurveto
            return
          </CharString>
          <CharString index="435">
            -38 -25 20 38 -3 hvcurveto
            -162 -258 171 hlineto
            return
          </CharString>
          <CharString index="436">
            -158 -196 rlineto
            193 hlineto
            164 231 rlineto
            return
          </CharString>
          <CharString index="437">
            -62 -26 -38 -49 -77 vvcurveto
            -151 143 -71 202 return
          </CharString>
          <CharString index="438">
            -93 34 85 -61 129 hhcurveto
            7 12 1 1 16 hvcurveto
            return
          </CharString>
          <CharString index="439">
            60 -30 -53 44 -93 hhcurveto
            -100 -98 -53 -118 -28 hvcurveto
            return
          </CharString>
          <CharString index="440">
            hhcurveto
            83 151 callgsubr
            180 590 return
          </CharString>
          <CharString index="441">
            rmoveto
            -111 122 111 hlineto
            return
          </CharString>
          <CharString index="442">
            -68 -28 38 51 hvcurveto
            -154 hlineto
            return
          </CharString>
          <CharString index="443">
            391 callgsubr
            159 hstemhm
            47 return
          </CharString>
          <CharString index="444">
            -38 vlineto
            -56 -25 -37 -114 vhcurveto
            return
          </CharString>
          <CharString index="445">
            95 vvcurveto
            71 -21 callsubr
            return
          </CharString>
          <CharString index="446">
            245 137 120 182 return
          </CharString>
          <CharString index="447">
            rmoveto
            -60 -27 48 62 hvcurveto
            181 return
          </CharString>
          <CharString index="448">
            -54 -44 -60 -29 hvcurveto
            -3 hlineto
            return
          </CharString>
          <CharString index="449">
            242 callsubr
            181 return
          </CharString>
          <CharString index="450">
            49 41 14 27 27 return
          </CharString>
          <CharString index="451">
            178 190 return
          </CharString>
          <CharString index="452">
            hintmask 010000000011101010000000
            -149 94 -108 172 vhcurveto
            hintmask 010000000011011010000000
            7 12 1 1 16 hvcurveto
            return
          </CharString>
          <CharString index="453">
            264 220 rmoveto
            -35 -26 21 35 38 30 22 40 hvcurveto
            56 -42 hlineto
            -42 -19 -32 -46 vhcurveto
            return
          </CharString>
          <CharString index="454">
            555 callgsubr
            187 -180 vlineto
            -64 -30 -47 -64 vhcurveto
            return
          </CharString>
          <CharString index="455">
            417 299 rmoveto
            -57 -26 43 58 hvcurveto
            190 170 -194 vlineto
            -52 -28 -45 -59 vhcurveto
            return
          </CharString>
          <CharString index="456">
            8 235 497 -427 142 -86 11 callgsubr
            371 -43 callgsubr
            return
          </CharString>
          <CharString index="457">
            358 callsubr
            vhcurveto
            return
          </CharString>
          <CharString index="458">
            -332 172 91 callgsubr
            -260 -278 -148 vlineto
            24 29 15 35 45 vvcurveto
            return
          </CharString>
          <CharString index="459">
            207 249 rmoveto
            41 30 28 42 41 29 -28 -41 482 callsubr
            return
          </CharString>
          <CharString index="460">
            404 hmoveto
            -76 -47 -41 -55 -56 -46 42 75 76 46 40 56 382 callgsubr
            vhcurveto
            endchar
          </CharString>
          <CharString index="461">
            -122 -54 vlineto
            return
          </CharString>
          <CharString index="462">
            128 65 241 -153 628 callsubr
            154 hintmask 11101110
            return
          </CharString>
          <CharString index="463">
            206 callgsubr
            332 381 callsubr
            99 469 callsubr
            722 -664 182 return
          </CharString>
          <CharString index="464">
            492 callsubr
            -394 688 -624 539 callsubr
            129 165 return
          </CharString>
          <CharString index="465">
            330 callsubr
            339 callsubr
            return
          </CharString>
          <CharString index="466">
            -801 87 rmoveto
            76 46 40 56 382 callgsubr
            -76 -47 -41 -55 -56 -46 42 75 vhcurveto
            return
          </CharString>
          <CharString index="467">
            -84 -63 callsubr
            return
          </CharString>
          <CharString index="468">
            485 -395 72 callsubr
            105 150 hstemhm
            44 182 return
          </CharString>
          <CharString index="469">
            119 87 83 144 126 -70 104 -130 -60 -47 -23 -37 -28 hvcurveto
            128 vlineto
            return
          </CharString>
          <CharString index="470">
            123 242 121 56 469 callsubr
            602 -541 150 247 140 return
          </CharString>
          <CharString index="471">
            -48 46 68 -28 86 hhcurveto
            70 53 22 37 37 hvcurveto
            -131 182 -93 callgsubr
          </CharString>
          <CharString index="472">
            -52 41 60 -26 82 586 callsubr
            -28 callgsubr
            endchar
          </CharString>
          <CharString index="473">
            126 -38 hlineto
            -77 -24 -56 -113 vhcurveto
            -10 hlineto
            return
          </CharString>
          <CharString index="474">
            -136 80 -105 144 61 50 22 40 33 vhcurveto
            return
          </CharString>
          <CharString index="475">
            115 282 rlineto
            -197 hlineto
            -48 -282 rlineto
            return
          </CharString>
          <CharString index="476">
            -115 -282 rlineto
            197 hlineto
            48 282 rlineto
            return
          </CharString>
          <CharString index="477">
            54 40 -21 -37 22 hvcurveto
            211 hlineto
            return
          </CharString>
          <CharString index="478">
            341 callgsubr
            -114 return
          </CharString>
          <CharString index="479">
            hstemhm
            -254 175 153 180 return
          </CharString>
          <CharString index="480">
            261 150 -697 -32 callgsubr
            return
          </CharString>
          <CharString index="481">
            147 -28 -122 92 -178 hhcurveto
            return
          </CharString>
          <CharString index="482">
            -88 -38 -57 -75 -2 vhcurveto
            return
          </CharString>
          <CharString index="483">
            495 callgsubr
            vhcurveto
            return
          </CharString>
          <CharString index="484">
            -2 -13 -1 -13 -13 vvcurveto
            return
          </CharString>
          <CharString index="485">
            16 38 78 95 vvcurveto
            75 return
          </CharString>
          <CharString index="486">
            630 561 rmoveto
            return
          </CharString>
          <CharString index="487">
            -51 -33 33 49 return
          </CharString>
          <CharString index="488">
            -155 155 return
          </CharString>
          <CharString index="489">
            154 100 638 callgsubr
            -54 callgsubr
            62 159 callgsubr
            return
          </CharString>
          <CharString index="490">
            -55 -41 -34 -64 -85 vvcurveto
            -152 100 -97 150 135 98 71 116 10 vhcurveto
            return
          </CharString>
          <CharString index="491">
            303 -38 hlineto
            -71 -28 -48 -105 vhcurveto
            -100 -224 hlineto
            -122 78 -96 149 vhcurveto
            return
          </CharString>
          <CharString index="492">
            150 9 -20 -75 callgsubr
            59 return
          </CharString>
          <CharString index="493">
            -24 -9 -26 -23 -40 hhcurveto
            -50 -42 37 65 68 36 43 56 36 22 -16 -14 12 hvcurveto
            return
          </CharString>
          <CharString index="494">
            -127 -107 -63 -141 -122 92 -81 137 146 78 96 135 hvcurveto
            33 return
          </CharString>
          <CharString index="495">
            128 65 126 callgsubr
            return
          </CharString>
          <CharString index="496">
            186 33 callsubr
            return
          </CharString>
          <CharString index="497">
            -197 181 return
          </CharString>
          <CharString index="498">
            -159 150 return
          </CharString>
          <CharString index="499">
            rmoveto
            hintmask 11001000
            250 -98 rlineto
            133 vlineto
            hintmask 11100000
            635 callsubr
          </CharString>
          <CharString index="500">
            -1 -9 -12 -1 -5 hhcurveto
            -53 -38 35 63 53 28 35 51 55 19 -48 -49 hvcurveto
            return
          </CharString>
          <CharString index="501">
            -128 -107 -63 -140 -122 93 -79 137 145 78 96 135 hvcurveto
            return
          </CharString>
          <CharString index="502">
            93 rmoveto
            -73 callsubr
            return
          </CharString>
          <CharString index="503">
            -150 1052 -128 vlineto
            -83 callgsubr
            -59 -47 -18 -32 -35 hvcurveto
            return
          </CharString>
          <CharString index="504">
            -2 -7 -9 0 -4 hhcurveto
            -38 -29 20 53 40 21 26 38 41 14 -37 -36 hvcurveto
            return
          </CharString>
          <CharString index="505">
            414 callgsubr
            vlineto
            return
          </CharString>
          <CharString index="506">
            -69 -106 callsubr
            return
          </CharString>
          <CharString index="507">
            210 478 callsubr
            return
          </CharString>
          <CharString index="508">
            130 callgsubr
            247 return
          </CharString>
          <CharString index="509">
            hstemhm
            -14 410 -336 179 -25 182 return
          </CharString>
          <CharString index="510">
            -199 -27 callsubr
          </CharString>
          <CharString index="511">
            -132 76 -90 174 vhcurveto
            return
          </CharString>
          <CharString index="512">
            -3 -14 -1 -15 -16 vvcurveto
            -9 return
          </CharString>
          <CharString index="513">
            0 -246 -21 828 -20 return
          </CharString>
          <CharString index="514">
            rmoveto
            -83 190 callgsubr
            return
          </CharString>
          <CharString index="515">
            -111 174 83 62 25 return
          </CharString>
          <CharString index="516">
            -37 46 43 -9 vhcurveto
            return
          </CharString>
          <CharString index="517">
            35 37 vhcurveto
            57 return
          </CharString>
          <CharString index="518">
            -150 307 return
          </CharString>
          <CharString index="519">
            20 1 7 9 15 hhcurveto
            14 7 -9 -14 -21 -11 -9 -22 hvcurveto
            -24 -55 hlineto
            return
          </CharString>
          <CharString index="520">
            589 294 rmoveto
            155 -577 vlineto
            -349 -705 rlineto
            213 hlineto
            return
          </CharString>
          <CharString index="521">
            428 callsubr
            306 callgsubr
            -71 callsubr
            return
          </CharString>
          <CharString index="522">
            45 -21 -40 33 -69 hhcurveto
            -91 -87 -56 -130 -117 72 -77 130 hvcurveto
            return
          </CharString>
          <CharString index="523">
            162 -155 177 112 182 -149 166 -156 156 return
          </CharString>
          <CharString index="524">
            158 hlineto
            133 7 -72 84 -138 hhcurveto
            -167 -42 -121 -104 hvcurveto
            return
          </CharString>
          <CharString index="525">
            11 callgsubr
            608 58 callsubr
            return
          </CharString>
          <CharString index="526">
            rmoveto
            69 45 44 56 57 -45 45 -69 -70 -45 -45 -57 -56 45 -44 70 hvcurveto
            return
          </CharString>
          <CharString index="527">
            rmoveto
            -33 -22 24 35 hvcurveto
            161 109 -161 vlineto
            -35 -19 -24 -35 vhcurveto
            return
          </CharString>
          <CharString index="528">
            rmoveto
            -52 -32 33 49 49 35 33 50 53 31 -37 -44 -44 -32 -39 -53 hvcurveto
            return
          </CharString>
          <CharString index="529">
            -133 101 callsubr
            return
          </CharString>
          <CharString index="530">
            -292 -111 -118 -166 return
          </CharString>
          <CharString index="531">
            vlineto
            174 callsubr
            return
          </CharString>
          <CharString index="532">
            -126 -78 -80 -110 -16 hvcurveto
            return
          </CharString>
          <CharString index="533">
            rmoveto
            20 callgsubr
            return
          </CharString>
          <CharString index="534">
            49 34 435 callsubr
            return
          </CharString>
          <CharString index="535">
            87 callgsubr
            -381 return
          </CharString>
          <CharString index="536">
            78 53 40 69 39 35 -15 -23 return
          </CharString>
          <CharString index="537">
            hstemhm
            20 callsubr
            return
          </CharString>
          <CharString index="538">
            -30 32 47 51 36 31 65 vhcurveto
            return
          </CharString>
          <CharString index="539">
            rmoveto
            -112 122 112 hlineto
            return
          </CharString>
          <CharString index="540">
            -140 -103 163 hlineto
            return
          </CharString>
          <CharString index="541">
            85 22 -17 -104 68 hvcurveto
            return
          </CharString>
          <CharString index="542">
            15 24 24 hvcurveto
            -142 return
          </CharString>
          <CharString index="543">
            154 -148 229 return
          </CharString>
          <CharString index="544">
            158 -182 return
          </CharString>
          <CharString index="545">
            371 -104 callgsubr
            6 172 -26 182 170 182 return
          </CharString>
          <CharString index="546">
            186 154 -254 vlineto
            177 -336 rmoveto
            91 callgsubr
            return
          </CharString>
          <CharString index="547">
            557 callgsubr
            56 35 50 29 vhcurveto
            return
          </CharString>
          <CharString index="548">
            72 callgsubr
            -129 205 95 181 return
          </CharString>
          <CharString index="549">
            -30 -31 16 35 -9 hvcurveto
            -170 hlineto
            -128 7 101 -74 130 hhcurveto
            return
          </CharString>
          <CharString index="550">
            50 25 -31 -33 3 hvcurveto
            144 hlineto
            115 13 -74 89 -123 hhcurveto
            return
          </CharString>
          <CharString index="551">
            460 callsubr
            vhcurveto
            return
          </CharString>
          <CharString index="552">
            159 146 163 118 177 -174 183 67 183 return
          </CharString>
          <CharString index="553">
            -98 -4 -75 -34 -46 -56 rrcurveto
            -196 hlineto
            return
          </CharString>
          <CharString index="554">
            -141 112 -79 -30 callgsubr
            return
          </CharString>
          <CharString index="555">
            264 callsubr
            146 return
          </CharString>
          <CharString index="556">
            -45 -35 -15 -34 -39 vvcurveto
            -75 62 -42 93 return
          </CharString>
          <CharString index="557">
            543 callgsubr
            222 -43 133 hstemhm
            return
          </CharString>
          <CharString index="558">
            107 84 69 171 27 hvcurveto
            -146 hlineto
            return
          </CharString>
          <CharString index="559">
            156 -63 hlineto
            -44 -22 -21 -49 8 vhcurveto
            return
          </CharString>
          <CharString index="560">
            171 callsubr
            89 return
          </CharString>
          <CharString index="561">
            566 callgsubr
            575 callsubr
            return
          </CharString>
          <CharString index="562">
            156 -152 -21 return
          </CharString>
          <CharString index="563">
            641 callsubr
            -21 return
          </CharString>
          <CharString index="564">
            rmoveto
            30 -23 23 -30 return
          </CharString>
          <CharString index="565">
            150 hstemhm
            62 return
          </CharString>
          <CharString index="566">
            316 0 156 -48 148 31 148 115 155 hstemhm
            return
          </CharString>
          <CharString index="567">
            453 callgsubr
            224 callsubr
            return
          </CharString>
          <CharString index="568">
            -84 callgsubr
            -327 return
          </CharString>
          <CharString index="569">
            -152 -107 -100 -145 -158 126 -85 141 78 66 27 return
          </CharString>
          <CharString index="570">
            -78 197 740 -197 -256 vlineto
            51 -31 -58 33 -74 hhcurveto
            return
          </CharString>
          <CharString index="571">
            556 callsubr
            168 174 return
          </CharString>
          <CharString index="572">
            435 418 -96 callsubr
            -1281 -150 511 -61 vlineto
            return
          </CharString>
          <CharString index="573">
            469 callsubr
            697 -636 490 callsubr
            180 return
          </CharString>
          <CharString index="574">
            -128 -72 rlineto
            -109 327 113 -172 vlineto
            50 22 rlineto
            return
          </CharString>
          <CharString index="575">
            92 -331 180 590 hlineto
            endchar
          </CharString>
          <CharString index="576">
            150 hstemhm
            -14 return
          </CharString>
          <CharString index="577">
            -58 -15 -37 -36 return
          </CharString>
          <CharString index="578">
            -78 vlineto
            50 -29 return
          </CharString>
          <CharString index="579">
            -5 -17 -33 -8 -35 hhcurveto
            -46 -40 15 45 36 23 26 46 hvcurveto
            return
          </CharString>
          <CharString index="580">
            hvcurveto
            -348 -158 hlineto
            -70 callgsubr
            return
          </CharString>
          <CharString index="581">
            vstem
            56 574 rmoveto
            132 hlineto
            12 228 rlineto
            -158 hlineto
            return
          </CharString>
          <CharString index="582">
            135 78 83 127 3 0 7 -1 7 hvcurveto
            -173 hlineto
            return
          </CharString>
          <CharString index="583">
            139 110 -246 vlineto
            -384 -364 rlineto
            207 hlineto
            return
          </CharString>
          <CharString index="584">
            174 60 133 callgsubr
            return
          </CharString>
          <CharString index="585">
            -189 600 callgsubr
            return
          </CharString>
          <CharString index="586">
            -29 -22 -23 -30 -28 22 -24 29 hvcurveto
            return
          </CharString>
          <CharString index="587">
            -79 callsubr
            25 return
          </CharString>
          <CharString index="588">
            342 callsubr
            590 return
          </CharString>
          <CharString index="589">
            608 callsubr
            41 vhcurveto
            return
          </CharString>
          <CharString index="590">
            335 608 callgsubr
            return
          </CharString>
          <CharString index="591">
            -6 436 callsubr
            return
          </CharString>
          <CharString index="592">
            65 124 58 150 hstemhm
            return
          </CharString>
          <CharString index="593">
            -29 -29 -41 -42 -30 29 return
          </CharString>
          <CharString index="594">
            -37 -44 hvcurveto
            183 hlineto
            return
          </CharString>
          <CharString index="595">
            613 callsubr
            150 return
          </CharString>
          <CharString index="596">
            161 137 180 return
          </CharString>
          <CharString index="597">
            611 callgsubr
            21 return
          </CharString>
          <CharString index="598">
            539 callgsubr
            49 return
          </CharString>
          <CharString index="599">
            469 callsubr
            394 return
          </CharString>
          <CharString index="600">
            106 -10 0 -59 103 hvcurveto
            return
          </CharString>
          <CharString index="601">
            21 411 callgsubr
            return
          </CharString>
          <CharString index="602">
            145 -62 151 return
          </CharString>
          <CharString index="603">
            56 hmoveto
            196 return
          </CharString>
          <CharString index="604">
            -150 340 return
          </CharString>
          <CharString index="605">
            35 -46 -45 -34 -35 -46 vhcurveto
            hintmask 01111100
            -45 34 -34 45 vhcurveto
            return
          </CharString>
          <CharString index="606">
            -54 callgsubr
            219 13 callsubr
            return
          </CharString>
          <CharString index="607">
            595 callgsubr
            626 vlineto
            return
          </CharString>
          <CharString index="608">
            -150 166 -190 vlineto
            -115 53 -92 100 -28 vhcurveto
            return
          </CharString>
          <CharString index="609">
            1 rrcurveto
            -53 -145 55 hlineto
            86 22 -18 -108 70 hvcurveto
            return
          </CharString>
          <CharString index="610">
            -45 -30 32 44 hvcurveto
            -171 hlineto
            -149 104 -87 151 return
          </CharString>
          <CharString index="611">
            -104 78 -96 160 146 90 96 136 vhcurveto
            9 vlineto
            return
          </CharString>
          <CharString index="612">
            -30 callgsubr
            64 427 callgsubr
            return
          </CharString>
          <CharString index="613">
            -149 149 145 150 hstemhm
            44 182 119 return
          </CharString>
          <CharString index="614">
            469 callsubr
            410 -397 172 -111 179 return
          </CharString>
          <CharString index="615">
            353 -220 13 -13 19 38 155 -147 155 return
          </CharString>
          <CharString index="616">
            -42 vlineto
            -45 -9 -38 -31 -24 vhcurveto
            52 -37 -55 25 -58 hhcurveto
            return
          </CharString>
          <CharString index="617">
            149 77 636 callsubr
          </CharString>
          <CharString index="618">
            -210 210 return
          </CharString>
          <CharString index="619">
            62 25 42 41 return
          </CharString>
          <CharString index="620">
            0 222 -216 141 -126 292 callsubr
            return
          </CharString>
          <CharString index="621">
            -31 -7 -26 -20 -37 hhcurveto
            -40 -34 27 56 54 34 29 return
          </CharString>
          <CharString index="622">
            256 370 rmoveto
            28 22 10 26 vhcurveto
            170 hlineto
            return
          </CharString>
          <CharString index="623">
            0 170 -158 156 -147 -21 35 135 return
          </CharString>
          <CharString index="624">
            -115 -129 rlineto
            189 hlineto
            136 172 rlineto
            return
          </CharString>
          <CharString index="625">
            rmoveto
            -24 callgsubr
            return
          </CharString>
          <CharString index="626">
            100 callgsubr
            hstem
            32 200 return
          </CharString>
          <CharString index="627">
            355 callgsubr
            72 202 hstemhm
            40 229 -213 return
          </CharString>
          <CharString index="628">
            -9 153 -144 205 -205 210 -156 return
          </CharString>
          <CharString index="629">
            -158 -196 542 callsubr
            163 230 rlineto
            return
          </CharString>
          <CharString index="630">
            110 -85 78 -140 -138 -84 -81 -106 -84 48 return
          </CharString>
          <CharString index="631">
            561 callgsubr
            vhcurveto
            return
          </CharString>
          <CharString index="632">
            636 hmoveto
            313 107 vlineto
            28 29 4 9 27 hvcurveto
            return
          </CharString>
          <CharString index="633">
            439 -70 -29 hlineto
            -154 -108 -84 -146 hvcurveto
            return
          </CharString>
          <CharString index="634">
            437 callgsubr
            -64 133 54 150 hstemhm
            return
          </CharString>
          <CharString index="635">
            hhcurveto
            108 74 48 52 31 hvcurveto
            643 callgsubr
          </CharString>
          <CharString index="636">
            352 -209 -113 63 vlineto
            return
          </CharString>
          <CharString index="637">
            40 30 21 43 vhcurveto
            48 -48 hlineto
            return
          </CharString>
          <CharString index="638">
            53 22 -37 -44 hvcurveto
            184 hlineto
            return
          </CharString>
          <CharString index="639">
            64 131 38 -9 31 -12 26 return
          </CharString>
          <CharString index="640">
            49 27 -37 -44 -48 -30 -29 -42 return
          </CharString>
          <CharString index="641">
            25 -247 -21 261 171 return
          </CharString>
          <CharString index="642">
            hlineto
            -102 -57 -51 -73 -54 29 -43 return
          </CharString>
          <CharString index="643">
            -108 -82 -70 -171 -27 hvcurveto
            return
          </CharString>
          <CharString index="644">
            355 callgsubr
            hstemhm
            return
          </CharString>
          <CharString index="645">
            68 77 30 89 hvcurveto
            return
          </CharString>
          <CharString index="646">
            180 -28 178 return
          </CharString>
          <CharString index="647">
            -35 -21 -25 -36 vhcurveto
            return
          </CharString>
          <CharString index="648">
            -195 -326 return
          </CharString>
          <CharString index="649">
            rlineto
            194 hlineto
            return
          </CharString>
          <CharString index="650">
            157 127 return
          </CharString>
          <CharString index="651">
            144 hlineto
            hintmask 0001000110000000
            48 8 19 20 36 hhcurveto
            return
          </CharString>
          <CharString index="652">
            12 30 5 33 36 604 callsubr
            return
          </CharString>
          <CharString index="653">
            120 -120 139 158 469 callsubr
            return
          </CharString>
          <CharString index="654">
            124 72 77 118 5 0 7 -1 11 hvcurveto
            return
          </CharString>
          <CharString index="655">
            -48 33 54 -29 75 hhcurveto
            60 50 21 40 34 hvcurveto
            return
          </CharString>
          <CharString index="656">
            411 callgsubr
            120 147 122 150 return
          </CharString>
          <CharString index="657">
            164 117 100 147 43 -10 39 -19 33 return
          </CharString>
          <CharString index="658">
            -315 609 -560 138 166 156 return
          </CharString>
          <CharString index="659">
            354 -70 -26 hlineto
            -155 -112 -85 -153 return
          </CharString>
          <CharString index="660">
            -127 93 -83 137 151 76 90 144 return
          </CharString>
          <CharString index="661">
            171 hlineto
            27 29 -8 -30 -27 -23 -11 -34 hvcurveto
            return
          </CharString>
          <CharString index="662">
            -150 623 callgsubr
            return
          </CharString>
          <CharString index="663">
            -150 336 callsubr
            184 return
          </CharString>
          <CharString index="664">
            595 callgsubr
            vlineto
            return
          </CharString>
          <CharString index="665">
            55 hlineto
            434 callsubr
            -95 -32 callgsubr
            return
          </CharString>
          <CharString index="666">
            -133 622 callsubr
            return
          </CharString>
          <CharString index="667">
            hstemhm
            56 178 -178 196 -178 178 return
          </CharString>
          <CharString index="668">
            101 22 49 78 91 vvcurveto
            71 127 -216 vlineto
            return
          </CharString>
          <CharString index="669">
            205 -188 176 callgsubr
            -686 return
          </CharString>
          <CharString index="670">
            -14 vlineto
            -27 -13 -24 -30 -31 -13 25 28 vhcurveto
            96 return
          </CharString>
          <CharString index="671">
            641 callgsubr
            394 -43 callgsubr
            return
          </CharString>
          <CharString index="672">
            -105 -48 -71 -93 -39 7 -43 16 -44 hvcurveto
            endchar
          </CharString>
          <CharString index="673">
            -28 -12 -25 -20 -38 hhcurveto
            return
          </CharString>
          <CharString index="674">
            11 callgsubr
            691 return
          </CharString>
          <CharString index="675">
            121 -69 139 vhcurveto
            return
          </CharString>
          <CharString index="676">
            159 146 157 return
          </CharString>
          <CharString index="677">
            1 1 1 1 1 1 return
          </CharString>
          <CharString index="678">
            68 456 callgsubr
            return
          </CharString>
          <CharString index="679">
            45 36 67 hvcurveto
            117 return
          </CharString>
          <CharString index="680">
            hstemhm
            24 194 return
          </CharString>
          <CharString index="681">
            -173 173 return
          </CharString>
          <CharString index="682">
            -180 180 return
          </CharString>
          <CharString index="683">
            1 150 rlineto
            return
          </CharString>
          <CharString index="684">
            186 hlineto
            endchar
          </CharString>
          <CharString index="685">
            -136 3 callsubr
            return
          </CharString>
          <CharString index="686">
            60 callgsubr
            hvcurveto
            return
          </CharString>
          <CharString index="687">
            484 -132 hlineto
            40 -37 -52 23 -72 hhcurveto
            return
          </CharString>
          <CharString index="688">
            178 callsubr
            365 -104 callgsubr
            return
          </CharString>
          <CharString index="689">
            101 -101 127 30 55 24 131 -102 102 return
          </CharString>
          <CharString index="690">
            371 callsubr
            336 return
          </CharString>
          <CharString index="691">
            64 hlineto
            54 24 -37 -39 -43 -27 -29 -43 hvcurveto
            return
          </CharString>
          <CharString index="692">
            -70 -60 -24 -41 -43 hvcurveto
            -169 122 hlineto
            return
          </CharString>
          <CharString index="693">
            hhcurveto
            83 151 callgsubr
            181 return
          </CharString>
          <CharString index="694">
            -68 -102 -93 409 callsubr
            179 5 return
          </CharString>
          <CharString index="695">
            46 9 25 24 42 vvcurveto
            62 -60 44 -100 vhcurveto
            return
          </CharString>
          <CharString index="696">
            992 -70 -26 hlineto
            -73 -64 -19 -36 -47 hvcurveto
            return
          </CharString>
          <CharString index="697">
            112 145 -132 150 40 206 return
          </CharString>
          <CharString index="698">
            -51 callsubr
            -210 205 return
          </CharString>
          <CharString index="699">
            24 vlineto
            36 13 37 43 33 19 -27 -38 vhcurveto
            return
          </CharString>
          <CharString index="700">
            -7 171 -164 164 233 171 return
          </CharString>
          <CharString index="701">
            -159 -90 -116 -162 hvcurveto
            180 hlineto
            return
          </CharString>
          <CharString index="702">
            121 -56 73 -74 32 vhcurveto
            84 vlineto
            endchar
          </CharString>
          <CharString index="703">
            568 callgsubr
            vlineto
            return
          </CharString>
          <CharString index="704">
            hlineto
            34 28 0 1 24 hvcurveto
            return
          </CharString>
          <CharString index="705">
            637 callgsubr
            222 hstemhm
            return
          </CharString>
          <CharString index="706">
            352 -113 113 hstemhm
            return
          </CharString>
          <CharString index="707">
            hlineto
            -4 -17 -2 -18 -19 vvcurveto
            return
          </CharString>
          <CharString index="708">
            146 100 81 144 hvcurveto
            return
          </CharString>
          <CharString index="709">
            135 98 74 121 10 return
          </CharString>
          <CharString index="710">
            vlineto
            -1 -9 0 -9 -10 vvcurveto
            return
          </CharString>
          <CharString index="711">
            vvcurveto
            406 59 -96 callsubr
            return
          </CharString>
          <CharString index="712">
            196 vstem
            496 callsubr
            return
          </CharString>
          <CharString index="713">
            -8 216 -216 290 return
          </CharString>
          <CharString index="714">
            187 188 rlineto
            -94 vlineto
            return
          </CharString>
          <CharString index="715">
            -41 -29 -28 -41 -42 -30 28 return
          </CharString>
          <CharString index="716">
            150 -264 -358 vlineto
            return
          </CharString>
          <CharString index="717">
            -89 80 -125 vhcurveto
            return
          </CharString>
          <CharString index="718">
            -65 324 -259 return
          </CharString>
          <CharString index="719">
            112 58 112 return
          </CharString>
          <CharString index="720">
            152 138 return
          </CharString>
          <CharString index="721">
            -80 197 vlineto
            return
          </CharString>
          <CharString index="722">
            -150 590 return
          </CharString>
          <CharString index="723">
            -202 205 return
          </CharString>
          <CharString index="724">
            -152 hlineto
            -77 6 47 -50 134 hhcurveto
            return
          </CharString>
          <CharString index="725">
            -83 139 150 76 91 143 vhcurveto
            return
          </CharString>
          <CharString index="726">
            rmoveto
            -41 -32 18 37 31 22 23 46 hvcurveto
            return
          </CharString>
          <CharString index="727">
            640 callsubr
            130 -130 131 return
          </CharString>
          <CharString index="728">
            -68 13 hlineto
            49 19 22 35 vhcurveto
            71 vlineto
            return
          </CharString>
          <CharString index="729">
            76 -98 129 68 49 24 40 30 vhcurveto
            return
          </CharString>
          <CharString index="730">
            205 -198 612 callsubr
            hstemhm
            return
          </CharString>
          <CharString index="731">
            599 246 hstem
            10 250 vstem
            10 return
          </CharString>
          <CharString index="732">
            609 -608 192 217 199 return
          </CharString>
          <CharString index="733">
            125 78 71 106 19 hvcurveto
            130 hlineto
            return
          </CharString>
          <CharString index="734">
            299 rmoveto
            -65 -28 48 62 hvcurveto
            181 return
          </CharString>
          <CharString index="735">
            153 hstemhm
            60 379 callgsubr
            65 return
          </CharString>
          <CharString index="736">
            33 vlineto
            48 20 49 57 45 26 -34 -50 return
          </CharString>
          <CharString index="737">
            43 hvcurveto
            48 -46 hlineto
            -43 164 callsubr
            return
          </CharString>
          <CharString index="738">
            152 304 377 callgsubr
            return
          </CharString>
          <CharString index="739">
            152 115 147 -124 150 return
          </CharString>
          <CharString index="740">
            355 -354 140 64 150 hstemhm
            return
          </CharString>
          <CharString index="741">
            -71 -50 -56 -90 -74 -60 37 69 -5 vhcurveto
            return
          </CharString>
          <CharString index="742">
            -250 113 rlineto
            endchar
          </CharString>
          <CharString index="743">
            90 144 hvcurveto
            endchar
          </CharString>
          <CharString index="744">
            hstemhm
            53 195 return
          </CharString>
          <CharString index="745">
            48 71 93 39 return
          </CharString>
          <CharString index="746">
            -150 793 return
          </CharString>
          <CharString index="747">
            148 151 return
          </CharString>
          <CharString index="748">
            219 -198 return
          </CharString>
          <CharString index="749">
            hvcurveto
            -190 hlineto
            return
          </CharString>
        <CharString name=".notdef">
          -155 0 50 600 50 hstem
          0 50 400 50 vstem
          0 vmoveto
          500 700 -500 hlineto
          250 -305 rmoveto
          -170 255 rlineto
          340 hlineto
          -140 -300 rmoveto
          170 255 rlineto
          -510 vlineto
          -370 -45 rmoveto
          170 255 170 -255 rlineto
          -370 555 rmoveto
          170 -255 -170 -255 rlineto
          endchar
        </CharString>
        <CharString name="A">
          148 callsubr
          hstemhm
          8 739 -9 callsubr
          hintmask 10100000
          -49 150 76 callgsubr
        </CharString>
        <CharString name="AE">
          459 callsubr
          486 545 callgsubr
          486 556 rmoveto
          hintmask 01111000
          -300 -146 vlineto
          hintmask 10110010
          413 callsubr
          hintmask 01111000
          52 108 rlineto
          218 hlineto
          hintmask 10111000
          -108 vlineto
          hintmask 10110010
          443 156 hlineto
          hintmask 10111000
          -247 131 hlineto
          hintmask 10110100
          217 148 hlineto
          hintmask 10111000
          -217 115 hlineto
          endchar
        </CharString>
        <CharString name="Aacute">
          148 callsubr
          hstemhm
          250 250 -9 callsubr
          -252 764 -80 callsubr
          hintmask 10100000
          -47 -727 76 callgsubr
        </CharString>
        <CharString name="Abreve">
          148 callsubr
          41 404 callgsubr
          199 94 170 94 hintmask 10101100
          540 hmoveto
          207 hlineto
          hintmask 01101100
          147 callsubr
          hintmask 10101100
          110 callgsubr
          hintmask 01101100
          175 callgsubr
          55 819 rmoveto
          hintmask 10011100
          18 -94 vlineto
          hintmask 10101100
          286 callgsubr
          hintmask 10011100
          64 callgsubr
          hintmask 10101100
          197 callsubr
          hintmask 01101100
          103 76 63 125 hvcurveto
          hintmask 10101100
          -104 -669 76 callgsubr
        </CharString>
        <CharString name="Acircumflex">
          148 callsubr
          hstemhm
          217 320 -9 callsubr
          35 762 -78 callsubr
          hintmask 10100000
          -84 -481 76 callgsubr
        </CharString>
        <CharString name="Adieresis">
          148 callsubr
          62 160 hstemhm
          192 287 callgsubr
          hintmask 10111000
          540 hmoveto
          207 hlineto
          hintmask 01111000
          147 callsubr
          hintmask 10111000
          110 callgsubr
          hintmask 01111000
          175 callgsubr
          -231 652 -99 callsubr
          hintmask 10111000
          -31 -502 76 callgsubr
        </CharString>
        <CharString name="Agrave">
          148 callsubr
          hstemhm
          250 250 -9 callsubr
          -252 729 518 callsubr
          hintmask 10100000
          203 -727 76 callgsubr
        </CharString>
        <CharString name="Amacron">
          148 callsubr
          67 132 hstemhm
          171 416 hintmask 10110000
          540 hmoveto
          207 hlineto
          hintmask 01110000
          147 callsubr
          hintmask 10110000
          110 callgsubr
          hintmask 01110000
          175 callgsubr
          -331 657 109 callsubr
          hintmask 10110000
          282 -639 76 callgsubr
        </CharString>
        <CharString name="Aogonek">
          100 -220 106 135 -21 115 150 615 callsubr
          hstemhm
          491 140 -140 260 hintmask 11010100
          265 705 rmoveto
          110 callgsubr
          175 callgsubr
          37 -111 rlineto
          -36 -32 -12 -33 -37 vvcurveto
          -80 62 -42 92 39 36 6 10 31 vhcurveto
          105 vlineto
          hintmask 11011000
          -10 -31 -26 -5 -21 hhcurveto
          -27 -15 11 19 18 13 20 58 26 hvcurveto
          45 20 -256 705 rlineto
          hintmask 11100100
          -38 -440 76 callgsubr
        </CharString>
        <CharString name="Aring">
          148 callsubr
          38 79 96 78 hstemhm
          250 81 93 81 hintmask 10111100
          540 hmoveto
          207 hlineto
          hintmask 01111100
          147 callsubr
          hintmask 10111100
          110 callgsubr
          hintmask 01111100
          175 callgsubr
          -124 707 rmoveto
          -26 -21 19 29 29 21 19 26 26 20 -19 -29 -29 -20 -19 -26 hvcurveto
          174 vmoveto
          -71 -57 -48 -79 -78 57 -48 71 70 57 48 78 79 -57 48 -70 hvcurveto
          hintmask 10111100
          75 -731 76 callgsubr
        </CharString>
        <CharString name="Atilde">
          148 callsubr
          45 -60 callsubr
          8 739 hintmask 10001010
          540 hmoveto
          207 hlineto
          hintmask 01001010
          147 callsubr
          hintmask 10001010
          110 callgsubr
          hintmask 01100010
          175 callgsubr
          -342 635 rmoveto
          98 hlineto
          hintmask 10000110
          111 callsubr
          hintmask 10001010
          -25 callgsubr
          hintmask 10010010
          112 callgsubr
          hintmask 10000110
          225 callsubr
          hintmask 01100010
          -76 -54 -46 -117 -20 hvcurveto
          hintmask 10001010
          293 -485 76 callgsubr
        </CharString>
        <CharString name="B">
          16 0 158 128 139 124 156 162 callsubr
          173 200 -185 201 hintmask 11110100
          440 220 rmoveto
          -42 -25 -20 -49 vhcurveto
          -114 128 113 hlineto
          48 27 -23 -43 hvcurveto
          hintmask 11111000
          -15 266 rmoveto
          -41 -26 -20 -48 vhcurveto
          -99 124 99 hlineto
          48 26 -21 -42 hvcurveto
          hintmask 11110100
          216 -294 rmoveto
          80 -51 71 -84 19 vhcurveto
          hintmask 11111000
          69 19 50 56 85 vvcurveto
          117 -88 66 -143 vhcurveto
          -338 -705 349 hlineto
          hintmask 11110100
          151 85 73 119 hvcurveto
          endchar
        </CharString>
        <CharString name="C">
          154 callsubr
          614 callgsubr
          -58 callgsubr
          endchar
        </CharString>
        <CharString name="CR">
          -464 endchar
        </CharString>
        <CharString name="Cacute">
          154 callsubr
          614 callgsubr
          22 250 -58 callgsubr
          hintmask 10011100
          221 526 -80 callsubr
          endchar
        </CharString>
        <CharString name="Ccaron">
          154 callsubr
          614 callgsubr
          -11 320 -58 callgsubr
          349 514 rmoveto
          hintmask 10010100
          -87 callgsubr
        </CharString>
        <CharString name="Ccedilla">
          103 -274 103 42 92 -92 304 -156 -21 22 -21 451 262 575 callsubr
          614 callgsubr
          36 193 callgsubr
          hintmask 1100101101000000
          32 354 rmoveto
          hintmask 1101001101000000
          -193 116 -140 181 -23 vhcurveto
          -127 vlineto
          hintmask 1100101100010000
          145 callsubr
          hintmask 1100101110000000
          433 callsubr
          hintmask 1100101100100000
          538 callsubr
          hintmask 1100101101000000
          496 callgsubr
          36 vlineto
          hintmask 1010001101000000
          144 22 101 95 31 141 rrcurveto
          -211 hlineto
          -53 -25 -47 -29 -58 hhcurveto
          -90 -59 70 109 108 59 70 90 hvcurveto
          hintmask 1100110101000000
          58 47 -29 -53 25 hvcurveto
          211 hlineto
          hintmask 1100101101000000
          160 -35 -126 102 -177 hhcurveto
          -212 -139 -148 -210 hvcurveto
          endchar
        </CharString>
        <CharString name="Cdotaccent">
          154 callsubr
          56 160 614 callgsubr
          69 160 hintmask 10011110
          32 354 rmoveto
          -211 139 -148 212 vhcurveto
          hintmask 01011110
          177 126 102 160 35 hvcurveto
          -211 hlineto
          hintmask 10011110
          -53 -25 -47 -29 -58 hhcurveto
          -90 -59 70 109 108 59 70 90 hvcurveto
          hintmask 10101110
          58 47 -29 -53 25 hvcurveto
          211 hlineto
          hintmask 10011110
          160 -35 -126 102 -177 hhcurveto
          -212 -139 -148 -210 hvcurveto
          347 414 -98 callsubr
          endchar
        </CharString>
        <CharString name="D">
          80 0 173 362 170 hstem
          56 196 252 199 vstem
          102 callsubr
          endchar
        </CharString>
        <CharString name="Dcaron">
          80 0 173 362 170 162 callsubr
          -55 320 -13 199 hintmask 11101000
          102 callsubr
          38 694 rmoveto
          hintmask 11010000
          -87 callgsubr
        </CharString>
        <CharString name="Dcroat">
          12 callgsubr
        </CharString>
        <CharString name="E">
          -107 0 31 callgsubr
          -39 callgsubr
          endchar
        </CharString>
        <CharString name="Eacute">
          -107 0 31 callgsubr
          -358 250 -39 callgsubr
          hintmask 11100010
          -358 331 -80 callsubr
          endchar
        </CharString>
        <CharString name="Ebreve">
          109 callgsubr
          41 142 -142 206 37 callsubr
          -409 94 170 94 hintmask 1110000100000000
          507 705 rmoveto
          hintmask 1110010000000000
          -451 -705 hlineto
          hintmask 1110000100000000
          410 callgsubr
          hintmask 1110010000000000
          -255 127 hlineto
          hintmask 1110001000000000
          380 callgsubr
          hintmask 1110010000000000
          -225 115 hlineto
          hintmask 1110000100000000
          255 hlineto
          hintmask 1111010001000000
          -51 386 rmoveto
          hintmask 1110110001000000
          18 -94 vlineto
          hintmask 1111010001000000
          286 callgsubr
          hintmask 1110100010000000
          64 callgsubr
          hintmask 1111000010000000
          197 callsubr
          hintmask 1111010001000000
          164 callgsubr
        </CharString>
        <CharString name="Ecaron">
          -107 0 31 callgsubr
          -390 320 -39 callgsubr
          -229 319 rmoveto
          hintmask 11100010
          -87 callgsubr
        </CharString>
        <CharString name="Ecircumflex">
          -107 0 31 callgsubr
          -390 320 -39 callgsubr
          hintmask 11100010
          -70 329 -78 callsubr
          endchar
        </CharString>
        <CharString name="Edieresis">
          109 callgsubr
          62 160 37 callsubr
          -416 287 callgsubr
          hintmask 1110001000000000
          507 705 rmoveto
          hintmask 1110100000000000
          -451 -705 hlineto
          hintmask 1110001000000000
          410 callgsubr
          hintmask 1110100000000000
          -255 127 hlineto
          hintmask 1110010000000000
          380 callgsubr
          hintmask 1110100000000000
          -225 115 hlineto
          hintmask 1110001000000000
          255 hlineto
          hintmask 1111000110000000
          -337 219 -99 callsubr
          endchar
        </CharString>
        <CharString name="Edotaccent">
          109 callgsubr
          62 160 37 callsubr
          -310 160 hintmask 11100010
          507 705 rmoveto
          hintmask 11101000
          -451 -705 hlineto
          hintmask 11100010
          410 callgsubr
          hintmask 11101000
          -255 127 hlineto
          hintmask 11100100
          380 callgsubr
          hintmask 11101000
          -225 115 hlineto
          hintmask 11100010
          255 hlineto
          hintmask 11110001
          -231 219 -98 callsubr
          endchar
        </CharString>
        <CharString name="Egrave">
          109 callgsubr
          60 callsubr
          343 -343 225 callgsubr
          -358 250 hintmask 11100010
          507 705 rmoveto
          hintmask 11110000
          -451 -705 hlineto
          hintmask 11100010
          410 callgsubr
          hintmask 11110000
          -255 127 hlineto
          hintmask 11100100
          380 callgsubr
          hintmask 11110000
          -225 115 hlineto
          hintmask 11100010
          255 hlineto
          hintmask 11100001
          -358 296 rmoveto
          hintmask 11101000
          250 -98 rlineto
          133 vlineto
          hintmask 11100001
          635 callsubr
        </CharString>
        <CharString name="Emacron">
          109 callgsubr
          67 132 37 callsubr
          -437 416 hintmask 11110010
          507 705 rmoveto
          hintmask 11111000
          -451 -705 hlineto
          hintmask 11110010
          410 callgsubr
          hintmask 11111000
          -255 127 hlineto
          hintmask 11110100
          380 callgsubr
          hintmask 11111000
          -225 115 hlineto
          hintmask 11110010
          255 hlineto
          hintmask 11110001
          -437 224 109 callsubr
          endchar
        </CharString>
        <CharString name="Eogonek">
          -107 -220 106 114 31 callgsubr
          -256 140 -140 260 hintmask 0111001000000000
          507 705 rmoveto
          hintmask 0111100000000000
          -451 -705 hlineto
          hintmask 1111000010000000
          248 hlineto
          -40 -33 -13 -33 -37 219 callsubr
          hintmask 1111000100000000
          -17 callgsubr
          hintmask 0111001000000000
          44 22 rlineto
          157 vlineto
          hintmask 0111100000000000
          -255 127 hlineto
          hintmask 0111010000000000
          380 callgsubr
          hintmask 0111100000000000
          -225 115 hlineto
          hintmask 0111001000000000
          255 hlineto
          endchar
        </CharString>
        <CharString name="Eth">
          12 callgsubr
        </CharString>
        <CharString name="Euro">
          138 -5 181 -181 262 -17 94 42 95 -21 262 -181 181 hstemhm
          18 256 -256 433 -377 377 hintmask 1011010010000000
          74 354 rmoveto
          -7 0 -7 -6 vvcurveto
          hintmask 1011010100000000
          -56 -94 71 hlineto
          -148 41 124 -97 171 hhcurveto
          hintmask 0101010100000000
          177 127 102 160 35 hvcurveto
          -212 hlineto
          hintmask 1011010100000000
          -52 -24 -48 -29 -58 hhcurveto
          -51 -42 23 41 -26 hvcurveto
          148 94 hlineto
          hintmask 1011011000000000
          -176 hlineto
          -1 6 0 7 7 vvcurveto
          8 0 7 1 7 vhcurveto
          hintmask 1011010100000000
          176 95 -146 hlineto
          38 26 40 22 51 hhcurveto
          hintmask 1010100100000000
          58 48 -29 -52 24 hvcurveto
          212 hlineto
          hintmask 1011010100000000
          160 -35 -127 102 -177 hhcurveto
          -170 -123 -95 -146 -42 hvcurveto
          -72 -95 hlineto
          hintmask 1011010010000000
          57 hlineto
          -1 -7 0 -8 -7 vvcurveto
          endchar
        </CharString>
        <CharString name="F">
          -94 21 -21 276 149 124 156 60 callsubr
          404 -404 478 hintmask 11110000
          496 callsubr
          276 hlineto
          hintmask 11101000
          208 149 hlineto
          hintmask 11110000
          -208 124 hlineto
          hintmask 11100100
          282 156 hlineto
          hintmask 11110000
          -478 hlineto
          endchar
        </CharString>
        <CharString name="G">
          102 -5 247 callsubr
          614 callgsubr
          128 366 hintmask 11011100
          -14 callsubr
          hintmask 11101100
          370 callsubr
          hintmask 11011100
          374 callsubr
          endchar
        </CharString>
        <CharString name="Gbreve">
          102 -5 247 callsubr
          34 404 callgsubr
          32 199 -31 94 65 366 -261 94 hintmask 1101001010000000
          -14 callsubr
          hintmask 1110001010000000
          370 callsubr
          hintmask 1101001010000000
          374 callsubr
          hintmask 1101101001000000
          169 222 rmoveto
          hintmask 1101011001000000
          18 -94 vlineto
          hintmask 1101101001000000
          286 callgsubr
          hintmask 1101010110000000
          64 callgsubr
          hintmask 1101100110000000
          197 callsubr
          hintmask 1101101001000000
          164 callgsubr
        </CharString>
        <CharString name="Gdotaccent">
          102 -5 247 callsubr
          55 160 614 callgsubr
          67 160 -99 366 hintmask 11010101
          -14 callsubr
          hintmask 11100101
          370 callsubr
          hintmask 11010101
          374 callsubr
          hintmask 11011110
          -12 55 -98 callsubr
          endchar
        </CharString>
        <CharString name="H">
          88 0 440 -157 422 162 callsubr
          239 196 hintmask 10110000
          491 hmoveto
          196 hlineto
          hintmask 01110000
          705 -196 vlineto
          hintmask 10110000
          -265 -239 vlineto
          hintmask 01110000
          265 -196 vlineto
          hintmask 10110000
          -705 196 vlineto
          hintmask 01110000
          283 239 vlineto
          endchar
        </CharString>
        <CharString name="I">
          -347 483 callgsubr
          vstem
          172 callgsubr
          endchar
        </CharString>
        <CharString name="Iacute">
          -347 21 -21 705 392 callgsubr
          705 -196 hlineto
          hintmask 11100000
          -29 174 292 callgsubr
        </CharString>
        <CharString name="Icircumflex">
          279 callsubr
          hstemhm
          -6 258 -196 196 -196 258 hintmask 11010000
          172 callgsubr
          hintmask 11001000
          258 172 289 callgsubr
        </CharString>
        <CharString name="Idieresis">
          279 callsubr
          82 160 hstemhm
          -32 160 -72 72 -72 196 -71 71 -71 159 hintmask 11100100
          172 callgsubr
          hintmask 11101000
          -9 62 87 callsubr
        </CharString>
        <CharString name="Idotaccent">
          279 callsubr
          82 160 560 callsubr
          hintmask 11101000
          172 callgsubr
          hintmask 11100100
          97 62 rmoveto
          hintmask 11110000
          372 callgsubr
          hintmask 11100100
          422 callgsubr
        </CharString>
        <CharString name="Igrave">
          279 callsubr
          hstemhm
          27 250 -221 196 -196 221 hintmask 11010000
          172 callgsubr
          hintmask 11100000
          -29 139 392 callsubr
        </CharString>
        <CharString name="Imacron">
          279 callsubr
          87 132 hstemhm
          -53 305 -196 196 -196 307 hintmask 11101000
          172 callgsubr
          hintmask 11110000
          -109 67 rmoveto
          hintmask 11100100
          416 132 hlineto
          hintmask 11110000
          -416 hlineto
          endchar
        </CharString>
        <CharString name="Iogonek">
          -347 -220 106 135 323 callgsubr
          hstemhm
          56 80 -80 196 hintmask 11101000
          256 -204 rmoveto
          105 vlineto
          hintmask 11110000
          -17 callgsubr
          hintmask 11101000
          44 22 rlineto
          705 -196 -700 vlineto
          -45 -35 -15 -34 -39 275 callsubr
          endchar
        </CharString>
        <CharString name="Itilde">
          -347 116 callgsubr
          56 196 hintmask 01100101
          172 callgsubr
          hintmask 01110001
          -119 45 -9 callgsubr
        </CharString>
        <CharString name="J">
          -71 -7 177 -177 260 452 -20 hstemhm
          18 194 115 196 hintmask 10101000
          327 238 rmoveto
          -49 -21 -19 -33 vhcurveto
          hintmask 01111000
          -36 -24 22 61 -1 hvcurveto
          -194 hlineto
          -172 108 -88 155 148 94 83 162 vhcurveto
          467 -196 vlineto
          endchar
        </CharString>
        <CharString name="K">
          71 483 callgsubr
          vstem
          473 hmoveto
          210 callsubr
        </CharString>
        <CharString name="L">
          -164 0 150 555 -20 60 callsubr
          415 324 callgsubr
          endchar
        </CharString>
        <CharString name="Lacute">
          -164 0 150 555 -20 60 callsubr
          415 -370 178 callsubr
          250 324 callgsubr
          hintmask 11001000
          -151 174 rmoveto
          -133 vlineto
          hintmask 11000100
          318 callsubr
        </CharString>
        <CharString name="Lcaron">
          -105 0 150 264 73 84 134 60 callsubr
          415 -119 166 -98 98 hintmask 11110100
          352 705 rmoveto
          -134 vlineto
          hintmask 11110010
          68 -14 hlineto
          -48 -20 -22 -34 vhcurveto
          -73 vlineto
          hintmask 11110100
          104 48 71 94 223 callsubr
          -440 hmoveto
          -705 vlineto
          hintmask 11101000
          415 150 hlineto
          hintmask 11110100
          -219 555 hlineto
          endchar
        </CharString>
        <CharString name="Ldot">
          -164 0 150 555 -20 82 160 60 callsubr
          415 -323 104 -104 160 hintmask 11110000
          56 705 rmoveto
          -705 vlineto
          hintmask 11101000
          415 150 hlineto
          hintmask 11110000
          -219 555 hlineto
          hintmask 11100100
          -25 62 rmoveto
          hintmask 11100010
          372 callgsubr
          hintmask 11100100
          422 callgsubr
        </CharString>
        <CharString name="Lslash">
          -152 0 149 556 -20 hstem
          70 197 vstem
          70 705 rmoveto
          -271 vlineto
          -60 -17 rlineto
          -170 vlineto
          60 17 rlineto
          -264 415 149 -218 171 vlineto
          79 23 rlineto
          170 vlineto
          -79 -23 rlineto
          412 callgsubr
        </CharString>
        <CharString name="M">
          280 483 callgsubr
          431 605 callsubr
          392 hlineto
          134 -392 rlineto
          164 hlineto
          133 389 rlineto
          -389 196 705 -236 vlineto
          -173 -458 -177 458 rlineto
          -237 hlineto
          endchar
        </CharString>
        <CharString name="N">
          110 483 callgsubr
          261 196 vstem
          513 705 -6 callsubr
          endchar
        </CharString>
        <CharString name="NULL">
          -655 endchar
        </CharString>
        <CharString name="Nacute">
          110 567 callgsubr
          56 196 2 250 9 196 hintmask 11101000
          513 705 -6 callsubr
          hintmask 11011000
          -455 174 -80 callsubr
          endchar
        </CharString>
        <CharString name="Ncaron">
          110 567 callgsubr
          56 196 -30 320 -29 196 hintmask 11101000
          513 705 -6 callsubr
          -326 162 rmoveto
          hintmask 11010000
          -87 callgsubr
        </CharString>
        <CharString name="Ntilde">
          110 116 callgsubr
          56 196 261 196 hintmask 0110010110000000
          513 705 -6 callsubr
          hintmask 0111000110000000
          -544 45 rmoveto
          98 hlineto
          hintmask 0110001110000000
          111 callsubr
          hintmask 0110010110000000
          40 35 -45 62 hhcurveto
          hintmask 1000000110000000
          76 54 45 117 20 hvcurveto
          -99 hlineto
          hintmask 0110100110000000
          112 callgsubr
          hintmask 1000000110000000
          225 callsubr
          hintmask 0111000110000000
          51 callsubr
        </CharString>
        <CharString name="O">
          519 callsubr
          324 199 vstem
          -104 callsubr
          endchar
        </CharString>
        <CharString name="OE">
          401 -11 181 -170 156 128 148 103 181 -167 156 hstemhm
          32 200 324 204 -204 429 -421 451 hintmask 0110110010000000
          1015 549 rmoveto
          156 -451 vlineto
          hintmask 1011010010000000
          -53 vlineto
          43 -48 -67 21 -70 hhcurveto
          -198 -149 -149 -214 -214 149 -150 198 hvcurveto
          70 2 67 20 48 43 rrcurveto
          hintmask 0110110010000000
          -54 451 156 vlineto
          hintmask 0110111000000000
          -255 128 hlineto
          hintmask 0110110100000000
          225 148 hlineto
          hintmask 0110111000000000
          -225 117 hlineto
          hintmask 1011011000000000
          -366 -14 rmoveto
          101 61 -71 -111 -111 -61 -72 -101 -102 -60 72 111 111 60 71 102 hvcurveto
          endchar
        </CharString>
        <CharString name="Oacute">
          519 callsubr
          34 250 40 199 vstem
          -104 callsubr
          34 524 -80 callsubr
          endchar
        </CharString>
        <CharString name="Ocircumflex">
          100 callgsubr
          hstemhm
          32 200 2 320 2 199 hintmask 11101000
          -104 callsubr
          hintmask 11010000
          322 522 -78 callsubr
          endchar
        </CharString>
        <CharString name="Odieresis">
          100 callgsubr
          51 160 hstemhm
          32 200 -24 287 callgsubr
          -24 199 hintmask 11110010
          -104 callsubr
          hintmask 11101100
          55 412 -99 callsubr
          endchar
        </CharString>
        <CharString name="Ograve">
          519 callsubr
          34 250 40 199 vstem
          -104 callsubr
          34 489 518 callsubr
          endchar
        </CharString>
        <CharString name="Ohungarumlaut">
          100 callgsubr
          32 227 hstem
          32 200 324 199 vstem
          -104 callsubr
          62 620 -8 callgsubr
        </CharString>
        <CharString name="Omacron">
          100 callgsubr
          56 132 hstemhm
          32 200 -45 416 -47 199 hintmask 11110100
          -104 callsubr
          hintmask 11101000
          -45 417 109 callsubr
          endchar
        </CharString>
        <CharString name="Oslash">
          132 -7 182 -174 111 424 180 -119 111 hstemhm
          31 200 324 199 hintmask 10101100
          754 355 rmoveto
          hintmask 10011100
          96 -33 84 -55 62 vhcurveto
          100 111 rlineto
          -109 hlineto
          hintmask 01101100
          -51 -57 rlineto
          42 -60 -73 23 -80 hhcurveto
          -200 -162 -149 -212 -97 34 -83 55 -63 hvcurveto
          -100 -111 rlineto
          110 hlineto
          hintmask 10101100
          51 57 rlineto
          -42 60 73 -23 79 hhcurveto
          200 161 150 212 hvcurveto
          -523 hmoveto
          111 60 70 102 34 30 -8 -15 24 vhcurveto
          -230 -255 rlineto
          -13 27 -7 33 37 vvcurveto
          162 -180 rmoveto
          -34 -29 8 14 -24 hvcurveto
          229 255 rlineto
          13 -27 7 -33 -37 vvcurveto
          -109 -61 -71 -101 vhcurveto
          endchar
        </CharString>
        <CharString name="Otilde">
          100 callgsubr
          34 -60 callsubr
          32 200 324 199 hintmask 11001011
          -104 callsubr
          hintmask 11100011
          -55 395 rmoveto
          98 hlineto
          hintmask 11000111
          111 callsubr
          hintmask 11001011
          -25 callgsubr
          hintmask 11010011
          112 callgsubr
          hintmask 11000111
          225 callsubr
          hintmask 11100011
          51 callsubr
        </CharString>
        <CharString name="P">
          -19 21 -21 238 156 153 158 hstem
          56 196 161 200 vstem
          252 394 rmoveto
          153 78 vlineto
          59 24 -30 -47 -46 -24 -30 -59 hvcurveto
          283 76 rmoveto
          136 -89 99 -175 vhcurveto
          -293 -705 196 238 97 hlineto
          179 85 109 123 hvcurveto
          endchar
        </CharString>
        <CharString name="Q">
          133 -118 293 -182 182 361 180 hstemhm
          32 200 324 199 hintmask 01111000
          232 355 rmoveto
          111 60 70 102 101 61 -70 -111 -109 -61 -71 -101 -102 -60 71 109 vhcurveto
          523 hmoveto
          212 -160 149 -201 -200 -162 -149 -212 -212 162 -150 200 23 22 2 4 22 vhcurveto
          hintmask 10111000
          78 -117 rlineto
          234 hlineto
          -149 190 rlineto
          hintmask 01111000
          80 64 51 100 119 vvcurveto
          endchar
        </CharString>
        <CharString name="R">
          6 0 194 callgsubr
          177 199 hintmask 10111000
          429 468 rmoveto
          -48 -27 -26 -53 vhcurveto
          -97 147 97 hlineto
          53 27 -29 -44 hvcurveto
          -373 237 rmoveto
          -705 196 vlineto
          hintmask 01111000
          260 21 vlineto
          hintmask 10111000
          47 callsubr
          endchar
        </CharString>
        <CharString name="Racute">
          6 0 194 callgsubr
          -57 250 -16 52 callgsubr
          hintmask 10101000
          -170 174 -80 callsubr
          endchar
        </CharString>
        <CharString name="Rcaron">
          6 0 194 callgsubr
          -90 320 -53 52 callgsubr
          -42 162 rmoveto
          hintmask 10101000
          -87 callgsubr
        </CharString>
        <CharString name="S">
          -35 -7 48 callgsubr
          -199 208 hintmask 01100101
          585 214 rmoveto
          hintmask 01010101
          142 callgsubr
          hintmask 01100010
          69 callgsubr
          hintmask 10100101
          25 callgsubr
          hintmask 01101001
          107 callsubr
          hintmask 01100101
          167 96 97 124 hvcurveto
          endchar
        </CharString>
        <CharString name="Sacute">
          -35 -7 48 callgsubr
          -394 250 -55 -4 callgsubr
          hintmask 0110000100000000
          -403 666 -80 callsubr
          endchar
        </CharString>
        <CharString name="Scaron">
          -35 -7 48 callgsubr
          -427 320 -92 -4 callgsubr
          -275 654 rmoveto
          hintmask 0110000100000000
          -87 callgsubr
        </CharString>
        <CharString name="T">
          -51 21 -21 549 156 hstem
          203 196 vstem
          17 549 rmoveto
          271 callgsubr
          endchar
        </CharString>
        <CharString name="Tcaron">
          -51 21 -21 549 156 hstemhm
          137 320 -254 196 hintmask 11010000
          17 549 rmoveto
          271 callgsubr
          281 162 rmoveto
          hintmask 11100000
          -87 callgsubr
        </CharString>
        <CharString name="Thorn">
          -19 0 276 -147 147 155 149 -149 274 hstemhm
          56 195 -195 196 161 200 hintmask 10010110
          252 276 rmoveto
          155 78 vlineto
          59 24 -31 -47 -46 -24 -31 -59 hvcurveto
          hintmask 01101010
          283 77 rmoveto
          132 -89 95 -175 vhcurveto
          -98 hlineto
          hintmask 10011010
          125 vlineto
          hintmask 10010110
          -195 -705 196 hlineto
          hintmask 01010110
          129 97 vlineto
          hintmask 01101010
          179 85 105 119 hvcurveto
          endchar
        </CharString>
        <CharString name="U">
          175 callsubr
          hstem
          53 195 216 196 vstem
          -100 callsubr
          endchar
        </CharString>
        <CharString name="Uacute">
          175 callsubr
          637 callsubr
          -19 19 216 196 hintmask 11101000
          -100 callsubr
          hintmask 11011000
          176 174 -80 callsubr
          endchar
        </CharString>
        <CharString name="Ubreve">
          175 callsubr
          61 404 callgsubr
          53 195 -71 94 170 94 -71 196 hintmask 11101001
          -100 callsubr
          hintmask 11101010
          482 229 160 callgsubr
        </CharString>
        <CharString name="Ucircumflex">
          175 callsubr
          637 callsubr
          -52 52 216 52 -52 196 hintmask 11100100
          -100 callsubr
          hintmask 11011000
          463 172 -78 callsubr
          endchar
        </CharString>
        <CharString name="Udieresis">
          175 callsubr
          82 160 637 callsubr
          -78 78 -78 287 callgsubr
          -78 78 -78 196 hintmask 1111000010000000
          -100 callsubr
          hintmask 1110100010000000
          196 62 rmoveto
          hintmask 1110010010000000
          372 callgsubr
          hintmask 1110100010000000
          -45 -34 -35 -46 -45 34 -34 45 hvcurveto
          hintmask 1111000100000000
          213 hmoveto
          535 callgsubr
          hvcurveto
          hintmask 1111001000000000
          -45 -34 -35 -46 hvcurveto
          hintmask 1111000100000000
          -45 34 -34 45 vhcurveto
          endchar
        </CharString>
        <CharString name="Ugrave">
          175 callsubr
          637 callsubr
          216 15 -15 196 hintmask 11101000
          -100 callsubr
          176 139 rmoveto
          hintmask 11110000
          -24 callgsubr
          endchar
        </CharString>
        <CharString name="Uhungarumlaut">
          175 callsubr
          63 227 hstem
          53 195 216 196 vstem
          -100 callsubr
          204 270 -8 callgsubr
        </CharString>
        <CharString name="Umacron">
          175 callsubr
          87 132 637 callsubr
          -99 99 216 101 -101 196 hintmask 11110010
          -100 callsubr
          hintmask 11101100
          96 67 109 callsubr
          endchar
        </CharString>
        <CharString name="Uogonek">
          57 -218 106 -106 395 528 -20 637 callsubr
          -63 140 -140 260 19 196 hintmask 10110010
          53 296 rmoveto
          -157 78 -96 115 -35 vhcurveto
          hintmask 10100110
          -46 -35 -15 -35 -39 219 callsubr
          hintmask 10101010
          -17 callgsubr
          44 22 -1 1 rlineto
          127 31 93 98 164 vvcurveto
          409 -196 -409 vlineto
          hintmask 01110010
          -73 -35 -46 -74 -74 -33 46 73 vhcurveto
          409 -195 vlineto
          endchar
        </CharString>
        <CharString name="Uring">
          175 callsubr
          58 79 96 78 637 callsubr
          -19 81 93 81 -20 196 hintmask 11111001
          -100 callsubr
          hintmask 11110110
          304 291 -12 callgsubr
          endchar
        </CharString>
        <CharString name="Utilde">
          175 callsubr
          65 -60 callsubr
          53 159 callsubr
          195 216 196 hintmask 1100100110000000
          -100 callsubr
          hintmask 1110001010000000
          86 45 rmoveto
          98 hlineto
          hintmask 1100011010000000
          111 callsubr
          hintmask 1100100110000000
          -25 callgsubr
          hintmask 1101000110000000
          112 callgsubr
          hintmask 1100011010000000
          225 callsubr
          hintmask 1110001010000000
          51 callsubr
        </CharString>
        <CharString name="V">
          92 250 callgsubr
          4 738 vstem
          374 196 rmoveto
          -160 509 rlineto
          -210 hlineto
          244 -705 rlineto
          251 hlineto
          243 705 rlineto
          -209 hlineto
          endchar
        </CharString>
        <CharString name="W">
          421 250 callgsubr
          27 1022 -74 callgsubr
          endchar
        </CharString>
        <CharString name="Wacute">
          421 250 callgsubr
          425 250 -74 callgsubr
          398 172 -80 callsubr
          endchar
        </CharString>
        <CharString name="Wcircumflex">
          421 250 callgsubr
          377 320 -74 callgsubr
          670 170 -78 callsubr
          endchar
        </CharString>
        <CharString name="Wdieresis">
          421 121 callgsubr
          80 160 hstem
          351 287 callgsubr
          -74 callgsubr
          403 60 -99 callsubr
          endchar
        </CharString>
        <CharString name="Wgrave">
          421 250 callgsubr
          404 250 -74 callgsubr
          377 136 518 callsubr
          endchar
        </CharString>
        <CharString name="X">
          84 250 callgsubr
          12 716 vstem
          497 hmoveto
          231 hlineto
          -241 350 226 355 rlineto
          -223 hlineto
          -114 -194 -133 194 rlineto
          -231 hlineto
          237 -344 -229 -361 rlineto
          223 hlineto
          117 199 rlineto
          endchar
        </CharString>
        <CharString name="Y">
          46 250 callgsubr
          252 197 vstem
          -53 callsubr
          endchar
        </CharString>
        <CharString name="Yacute">
          46 567 callgsubr
          223 250 -221 197 hintmask 11010000
          -53 callsubr
          hintmask 11100000
          219 174 -80 callsubr
          endchar
        </CharString>
        <CharString name="Ycircumflex">
          46 567 callgsubr
          191 320 -259 197 hintmask 11010000
          -53 callsubr
          hintmask 11100000
          507 172 -78 callsubr
          endchar
        </CharString>
        <CharString name="Ydieresis">
          46 121 callgsubr
          82 160 hstemhm
          165 160 -73 197 -71 159 hintmask 11101000
          -53 callsubr
          hintmask 11110100
          240 62 -99 callsubr
          endchar
        </CharString>
        <CharString name="Ygrave">
          46 567 callgsubr
          223 250 -221 197 hintmask 11010000
          -53 callsubr
          hintmask 11100000
          219 139 518 callsubr
          endchar
        </CharString>
        <CharString name="Z">
          426 callgsubr
          hstem
          50 513 vstem
          22 callsubr
          endchar
        </CharString>
        <CharString name="Zacute">
          426 callgsubr
          hstemhm
          50 513 -384 250 hintmask 11100000
          22 callsubr
          hintmask 11010000
          -384 323 -80 callsubr
          endchar
        </CharString>
        <CharString name="Zcaron">
          426 callgsubr
          hstemhm
          50 513 -417 320 hintmask 11100000
          22 callsubr
          -256 311 rmoveto
          hintmask 11010000
          -87 callgsubr
        </CharString>
        <CharString name="Zdotaccent">
          426 callgsubr
          62 160 hstemhm
          50 513 -337 160 hintmask 11010000
          22 callsubr
          hintmask 11101000
          -258 211 -98 callsubr
          endchar
        </CharString>
        <CharString name="a">
          -18 callsubr
          199 callgsubr
          204 196 hintmask 10011100
          -65 callgsubr
          hintmask 01101100
          146 callsubr
          hintmask 10011100
          471 callsubr
          -56 35 -80 -96 callgsubr
          endchar
        </CharString>
        <CharString name="a.ss02">
          -55 callgsubr
          577 callgsubr
          158 177 callgsubr
          hintmask 0010100010000000
          382 hmoveto
          196 330 hlineto
          hintmask 0100100010000000
          -48 callsubr
          hintmask 0010011100000000
          -56 callsubr
          hvcurveto
          hintmask 1000101010000000
          71 callsubr
          hintmask 0101101100000000
          -62 callsubr
        </CharString>
        <CharString name="aacute">
          -18 callsubr
          199 callgsubr
          -7 250 -39 196 hintmask 10011010
          -65 callgsubr
          hintmask 01101010
          146 callsubr
          hintmask 10011010
          471 callsubr
          -56 35 -80 -96 callgsubr
          hintmask 10010100
          -211 451 -80 callsubr
          endchar
        </CharString>
        <CharString name="aacute.ss02">
          -55 callgsubr
          577 callgsubr
          -6 250 -86 177 callgsubr
          hintmask 0100100100000000
          217 732 -80 callsubr
          hintmask 0010100001000000
          -85 -845 -69 callsubr
        </CharString>
        <CharString name="abreve">
          -18 callsubr
          31 447 callgsubr
          -58 94 168 196 -194 94 hintmask 1001101010000000
          -65 callgsubr
          hintmask 0110101010000000
          146 callsubr
          hintmask 1001101010000000
          471 callsubr
          -56 35 -80 -96 callgsubr
          hintmask 1001101001000000
          96 506 rmoveto
          hintmask 1001011001000000
          18 -94 vlineto
          hintmask 1001101001000000
          286 callgsubr
          hintmask 1001010110000000
          64 callgsubr
          hintmask 1001100110000000
          197 callsubr
          hintmask 1001101001000000
          164 callgsubr
        </CharString>
        <CharString name="abreve.ss02">
          -55 callgsubr
          30 404 callgsubr
          24 199 -57 94 121 177 callgsubr
          -148 94 hintmask 0100101001001000
          524 787 rmoveto
          hintmask 0100100101001000
          18 -94 vlineto
          hintmask 0100101001001000
          286 callgsubr
          hintmask 0100100101010000
          64 callgsubr
          hintmask 0100101001010000
          197 callsubr
          hintmask 0100101001001000
          103 76 63 125 hvcurveto
          hintmask 0010100001010000
          -142 -787 319 callsubr
          hintmask 0100100001010000
          -48 callsubr
          hintmask 0010010010100000
          -56 callsubr
          hvcurveto
          hintmask 1000100010010000
          71 callsubr
          hintmask 0101100010100000
          -62 callsubr
        </CharString>
        <CharString name="acircumflex">
          -18 callsubr
          199 callgsubr
          -39 320 -77 77 -77 196 hintmask 10011001
          -65 callgsubr
          hintmask 01101001
          146 callsubr
          hintmask 10011001
          471 callsubr
          -56 35 -80 -96 callgsubr
          hintmask 10011010
          77 449 rmoveto
          -159 77 rlineto
          hintmask 10010100
          -161 -77 rlineto
          -131 vlineto
          161 80 rlineto
          hintmask 10011010
          159 -80 rlineto
          endchar
        </CharString>
        <CharString name="acircumflex.ss02">
          -55 callgsubr
          577 callgsubr
          -38 320 -124 177 callgsubr
          hintmask 0100100100000000
          505 730 -78 callsubr
          hintmask 0010100001000000
          -123 -599 -69 callsubr
        </CharString>
        <CharString name="acute">
          -385 624 callsubr
          732 -80 callsubr
          endchar
        </CharString>
        <CharString name="adieresis">
          -18 callsubr
          52 160 199 callgsubr
          -65 287 callgsubr
          -103 196 hintmask 1001110010000000
          -65 callgsubr
          hintmask 0110110010000000
          146 callsubr
          hintmask 1001110010000000
          471 callsubr
          -56 35 -80 -96 callgsubr
          hintmask 1001101100000000
          -190 339 -99 callsubr
          endchar
        </CharString>
        <CharString name="adieresis.ss02">
          -55 callgsubr
          51 160 577 callgsubr
          -64 287 callgsubr
          -150 177 callgsubr
          hintmask 0100101010010000
          238 620 -98 callsubr
          hintmask 0100101011000000
          213 hmoveto
          535 callgsubr
          -45 -34 -35 -46 -45 34 -34 45 hvcurveto
          hintmask 0010101010010000
          -69 -620 319 callsubr
          hintmask 0100101010010000
          -48 callsubr
          hintmask 0010011100100000
          -56 callsubr
          hvcurveto
          hintmask 1000101100010000
          71 callsubr
          hintmask 0101101100100000
          -62 callsubr
        </CharString>
        <CharString name="ae">
          406 190 callsubr
          204 625 callsubr
          hintmask 0100100011011000
          261 callsubr
          hintmask 1000010001011000
          362 callgsubr
          hintmask 0100001001011000
          527 callgsubr
          hintmask 0100010001011000
          77 -192 vlineto
          hintmask 0100001001011000
          260 callgsubr
          hintmask 0001000001011000
          -78 192 vlineto
          hintmask 0100010001011000
          78 vlineto
          -52 31 61 -33 81 hhcurveto
          hintmask 0100100011011000
          120 85 86 115 26 hvcurveto
          hintmask 0010000101100000
          359 callsubr
          endchar
        </CharString>
        <CharString name="agrave">
          -18 callsubr
          199 callgsubr
          204 39 -39 196 hintmask 10011010
          -65 callgsubr
          hintmask 01101010
          146 callsubr
          hintmask 10011010
          471 callsubr
          -56 35 -80 -96 callgsubr
          -211 416 rmoveto
          hintmask 10011100
          -24 callgsubr
          endchar
        </CharString>
        <CharString name="agrave.ss02">
          -55 callgsubr
          577 callgsubr
          -6 250 -86 177 callgsubr
          hintmask 0100100100000000
          217 697 518 callsubr
          hintmask 0010100001000000
          165 -845 -69 callsubr
        </CharString>
        <CharString name="amacron">
          -18 callsubr
          57 132 199 callgsubr
          -86 416 -126 126 -126 196 hintmask 1001110010000000
          -65 callgsubr
          hintmask 0110110010000000
          146 callsubr
          hintmask 1001110010000000
          471 callsubr
          -56 35 -80 -96 callgsubr
          hintmask 1001101000000000
          -290 344 rmoveto
          hintmask 1001110100000000
          416 132 hlineto
          hintmask 1001101000000000
          -416 hlineto
          endchar
        </CharString>
        <CharString name="amacron.ss02">
          -55 callgsubr
          56 132 577 callgsubr
          -85 416 -173 177 callgsubr
          hintmask 0100101010000000
          138 625 109 callsubr
          hintmask 0010101000100000
          244 -757 319 callsubr
          hintmask 0100101000100000
          -48 callsubr
          hintmask 0010011101000000
          -56 callsubr
          hvcurveto
          hintmask 1000101100100000
          71 callsubr
          hintmask 0101101101000000
          -62 callsubr
        </CharString>
        <CharString name="ampersand">
          159 -11 157 -146 365 163 191 -144 144 hstemhm
          36 189 -102 183 92 181 hintmask 01101010
          579 528 rmoveto
          98 2 -75 93 -152 hhcurveto
          hintmask 01100110
          -149 -82 -86 -103 -43 13 -37 34 -43 hvcurveto
          hintmask 10101010
          -91 -45 -43 -74 -83 vvcurveto
          -129 105 -87 168 89 75 22 43 63 vhcurveto
          hintmask 01010110
          57 -54 rlineto
          221 hlineto
          -168 164 30 41 26 49 23 55 rlinecurve
          29 56 rlineto
          -194 hlineto
          -20 -36 -6 -15 -6 -14 -7 -14 rlinecurve
          -165 161 rlineto
          -33 33 -17 27 25 vvcurveto
          27 21 16 26 vhcurveto
          hintmask 10101010
          24 21 -15 -32 hvcurveto
          -76 -382 rmoveto
          -62 -35 35 41 29 17 29 35 21 hvcurveto
          139 -132 rlineto
          -15 -27 -31 -8 -36 hhcurveto
          endchar
        </CharString>
        <CharString name="ampersand.ss03">
          40 -7 162 -134 -21 480 241 -163 163 hstemhm
          28 168 -55 185 70 184 hintmask 01100110
          141 545 rmoveto
          -44 11 -39 27 -39 vhcurveto
          hintmask 10101010
          -87 -21 -64 -78 -110 vvcurveto
          -120 82 -101 150 81 62 32 45 38 vhcurveto
          hintmask 01010110
          50 -70 rlineto
          201 hlineto
          -341 471 rlineto
          -19 26 -6 13 16 vvcurveto
          19 13 13 19 23 12 -14 -24 3 vhcurveto
          hintmask 01101010
          1 -11 0 -15 -1 -14 rrcurveto
          184 hlineto
          3 33 -2 37 -11 33 rrcurveto
          74 -22 -62 64 -131 hhcurveto
          hintmask 01100110
          -141 -73 -86 -90 hvcurveto
          hintmask 10101010
          55 -326 rmoveto
          37 27 26 39 38 27 -26 -37 -37 -27 -27 -38 -39 -27 27 37 vhcurveto
          endchar
        </CharString>
        <CharString name="aogonek">
          25 -220 106 107 171 -143 -21 397 133 callsubr
          199 callgsubr
          143 140 -79 196 hintmask 10101101
          24 281 rmoveto
          hintmask 11001101
          20 callgsubr
          79 57 35 50 29 vhcurveto
          -72 vlineto
          hintmask 10101110
          -46 -35 -15 -35 -39 219 callsubr
          -17 callgsubr
          hintmask 10110101
          44 22 rlineto
          1 561 -196 hlineto
          hintmask 10101101
          471 callsubr
          -56 35 -80 hhcurveto
          422 callsubr
          404 hmoveto
          hintmask 11001101
          -76 -47 -41 -55 -56 -46 42 75 76 46 40 56 vhcurveto
          hintmask 10101101
          382 callgsubr
          hvcurveto
          endchar
        </CharString>
        <CharString name="aogonek.ss02">
          -21 -220 106 103 142 -110 -21 234 91 29 215 -159 159 577 callgsubr
          99 140 -81 177 callgsubr
          hintmask 1010100001000000
          582 -204 rmoveto
          105 vlineto
          hintmask 1010100100000000
          -17 callgsubr
          hintmask 1010100001000000
          44 22 rlineto
          330 vlineto
          -48 callsubr
          hintmask 1101011010000000
          -56 callsubr
          -103 80 -60 99 hvcurveto
          hintmask 1100100001000000
          75 76 34 54 28 hvcurveto
          -72 vlineto
          hintmask 1010100100000000
          449 callsubr
          vhcurveto
          hintmask 1010100001000000
          38 36 6 10 31 hvcurveto
          hintmask 1101101010000000
          -359 385 rmoveto
          31 24 22 49 vhcurveto
          85 -9 hlineto
          -55 -50 -39 -51 -35 -22 18 32 vhcurveto
          endchar
        </CharString>
        <CharString name="apostrophemod.ss01">
          103 callsubr
        </CharString>
        <CharString name="approxequal">
          19 95 301 callsubr
          22 301 callsubr
          hstemhm
          24 626 hintmask 1000000110000000
          24 95 rmoveto
          544 callsubr
          hintmask 0100000110000000
          59 50 -66 92 hhcurveto
          hintmask 0010000110000000
          451 callsubr
          hintmask 0100000110000000
          499 callgsubr
          hintmask 1000000110000000
          536 callsubr
          hintmask 0001100010000000
          263 vmoveto
          544 callsubr
          hintmask 0001010010000000
          59 50 -66 92 hhcurveto
          hintmask 0001001010000000
          451 callsubr
          hintmask 0001010010000000
          499 callgsubr
          hintmask 0001100010000000
          536 callsubr
          endchar
        </CharString>
        <CharString name="aring">
          -18 callsubr
          28 79 96 78 199 callgsubr
          -6 81 93 81 -45 196 hintmask 1001011001000000
          -65 callgsubr
          hintmask 0110011001000000
          146 callsubr
          hintmask 1001011001000000
          471 callsubr
          -56 35 -80 -96 callgsubr
          hintmask 1001110110000000
          -82 568 -12 callgsubr
          endchar
        </CharString>
        <CharString name="aring.ss02">
          -55 callgsubr
          27 79 96 78 577 callgsubr
          -5 81 82 177 callgsubr
          -186 81 hintmask 0100101101001000
          346 849 -12 callgsubr
          hintmask 0010100101010000
          36 -675 319 callsubr
          hintmask 0100100101010000
          -48 callsubr
          hintmask 0010010110100000
          -56 callsubr
          hvcurveto
          hintmask 1000100110010000
          71 callsubr
          hintmask 0101100110100000
          -62 callsubr
        </CharString>
        <CharString name="asciicircum">
          78 163 544 hstem
          28 678 vstem
          510 163 rmoveto
          196 hlineto
          -242 544 rlineto
          -193 hlineto
          -243 -544 rlineto
          196 hlineto
          144 320 rlineto
          endchar
        </CharString>
        <CharString name="asciitilde">
          19 194 301 callsubr
          hstemhm
          24 626 hintmask 10001000
          24 194 rmoveto
          144 hlineto
          hintmask 00011000
          48 8 19 20 36 hhcurveto
          hintmask 01001000
          59 50 -66 92 hhcurveto
          hintmask 00101000
          451 callsubr
          hintmask 01001000
          -48 -7 -20 -19 -35 hhcurveto
          hintmask 00011000
          -58 -51 66 -92 hhcurveto
          hintmask 10001000
          536 callsubr
          endchar
        </CharString>
        <CharString name="asterisk">
          -107 360 382 hstem
          79 396 vstem
          343 742 rmoveto
          -131 hlineto
          29 -125 -98 84 -62 -111 115 -36 -117 -40 69 -119 92 89 -26 -124 rlineto
          128 hlineto
          -27 124 94 -87 66 116 -117 38 117 40 -62 111 -98 -85 rlineto
          endchar
        </CharString>
        <CharString name="at">
          449 -235 133 95 138 -136 127 174 131 -131 137 114 130 hstemhm
          75 144 84 166 141 148 -148 151 123 146 hintmask 1010111110100000
          766 -5 rmoveto
          172 92 147 172 215 -156 148 -242 -317 -240 -227 -315 -225 153 -145 236 82 78 15 29 66 hvcurveto
          -32 124 rlineto
          -22 -50 -63 -13 -68 hhcurveto
          -163 -95 96 155 220 169 178 226 168 102 -93 -146 -92 -27 -94 -63 hvcurveto
          hintmask 1011011101100000
          -35 -5 27 42 7 hvcurveto
          41 236 rlineto
          -154 hlineto
          hintmask 1100111101100000
          -10 -56 rlineto
          38 -16 -37 24 -57 hhcurveto
          -133 -92 -133 -144 -103 59 -60 98 70 59 29 52 35 hvcurveto
          hintmask 1010111110100000
          -50 20 49 -29 73 hhcurveto
          -156 237 rmoveto
          hintmask 1100111110100000
          -57 -41 -44 -45 -35 -20 24 37 57 37 47 48 vhcurveto
          hintmask 1010111110100000
          35 21 -26 -38 hvcurveto
          endchar
        </CharString>
        <CharString name="atilde">
          -18 callsubr
          35 413 callgsubr
          204 196 hintmask 1001001011000000
          -65 callgsubr
          hintmask 0110001011000000
          146 callsubr
          hintmask 1001001011000000
          471 callsubr
          -56 35 -80 -96 callgsubr
          hintmask 1001100011000000
          -301 322 rmoveto
          98 hlineto
          hintmask 1001000111000000
          111 callsubr
          hintmask 1001001011000000
          -25 callgsubr
          hintmask 1001010011000000
          112 callgsubr
          hintmask 1001000111000000
          225 callsubr
          hintmask 1001100011000000
          51 callsubr
        </CharString>
        <CharString name="atilde.ss02">
          -55 callgsubr
          34 -60 callsubr
          24 199 158 177 callgsubr
          hintmask 0100101000001000
          127 603 rmoveto
          98 hlineto
          hintmask 0100100001001000
          111 callsubr
          hintmask 0100100010001000
          -25 callgsubr
          hintmask 0100100100001000
          112 callgsubr
          hintmask 0100100001001000
          225 callsubr
          hintmask 0100101000001000
          -76 -54 -46 -117 -20 hvcurveto
          hintmask 0010100010001000
          255 -603 319 callsubr
          hintmask 0100100010001000
          -48 callsubr
          hintmask 0010010010110000
          -56 callsubr
          hvcurveto
          hintmask 1000100010101000
          71 callsubr
          hintmask 0101100010110000
          -62 callsubr
        </CharString>
        <CharString name="b">
          25 593 callsubr
          172 -20 162 callsubr
          204 199 hintmask 10111000
          252 483 rmoveto
          257 -196 vlineto
          hintmask 01111000
          -740 196 vlineto
          hintmask 10111100
          78 vlineto
          -51 30 55 -34 79 hhcurveto
          474 callgsubr
          hintmask 10111000
          -78 -56 -34 -51 -30 hvcurveto
          hintmask 10111100
          312 callsubr
        </CharString>
        <CharString name="backslash">
          185 -193 1145 hstem
          192 442 vstem
          380 952 rmoveto
          -188 hlineto
          254 -1145 rlineto
          188 hlineto
          endchar
        </CharString>
        <CharString name="bar">
          -378 -137 959 hstem
          40 197 vstem
          40 822 rmoveto
          -959 197 959 vlineto
          endchar
        </CharString>
        <CharString name="braceleft">
          -163 -221 159 325 159 324 159 hstemhm
          76 167 -167 274 -204 187 -187 283 -260 181 hintmask 11100001
          169 192 rmoveto
          hintmask 11100010
          -55 -23 -91 -73 vvcurveto
          -125 84 -69 125 vhcurveto
          74 159 hlineto
          hintmask 11100100
          -36 hlineto
          -44 -16 20 35 hvcurveto
          hintmask 11100001
          48 17 96 63 vvcurveto
          hintmask 11110000
          74 -33 53 -74 14 vhcurveto
          2 vlineto
          hintmask 11100001
          74 14 33 53 74 vvcurveto
          hintmask 11100100
          63 -17 96 47 vvcurveto
          36 16 20 44 vhcurveto
          hintmask 11100010
          36 159 -74 hlineto
          -125 -84 -69 -125 hvcurveto
          hintmask 11100001
          -73 23 -91 -56 vvcurveto
          hintmask 11101000
          -44 -25 -24 -68 -1 vhcurveto
          -159 vlineto
          hintmask 11100001
          68 -2 25 -27 -42 vvcurveto
          endchar
        </CharString>
        <CharString name="braceright">
          -163 746 -20 hstem
          63 353 vstem
          323 192 rmoveto
          -55 23 -91 -73 vvcurveto
          -125 -84 -69 -125 vhcurveto
          -74 159 36 hlineto
          44 16 20 35 hvcurveto
          48 -17 96 63 vvcurveto
          74 33 53 74 14 vhcurveto
          2 vlineto
          -74 14 -33 53 74 63 17 96 47 vvcurveto
          36 -16 20 -44 vhcurveto
          -36 159 74 hlineto
          125 84 -69 -125 hvcurveto
          -73 -23 -91 -56 vvcurveto
          -44 25 -24 68 -1 vhcurveto
          -159 vlineto
          -68 -2 -25 -27 -42 vvcurveto
          endchar
        </CharString>
        <CharString name="bracketleft">
          -133 -219 159 806 158 hstemhm
          108 159 callsubr
          340 hintmask 11100000
          108 -219 rmoveto
          hintmask 11010000
          340 159 hlineto
          hintmask 11100000
          -156 806 hlineto
          hintmask 11010000
          156 158 hlineto
          hintmask 11100000
          -340 hlineto
          endchar
        </CharString>
        <CharString name="bracketright">
          -134 -60 806 0 -20 hstemhm
          73 340 hintmask 01100000
          413 -219 rmoveto
          -340 hlineto
          hintmask 10100000
          159 156 806 -156 158 340 vlineto
          endchar
        </CharString>
        <CharString name="breve">
          -277 599 404 callgsubr
          10 94 170 94 hintmask 10110000
          368 787 rmoveto
          hintmask 01110000
          18 -94 vlineto
          hintmask 10110000
          286 callgsubr
          hintmask 01110000
          64 callgsubr
          hintmask 10110000
          -125 77 -63 102 103 76 63 125 vhcurveto
          endchar
        </CharString>
        <CharString name="brokenbar">
          -248 -137 421 118 420 hstem
          105 197 vstem
          105 284 rmoveto
          -421 197 421 vlineto
          118 vmoveto
          420 -197 -420 vlineto
          endchar
        </CharString>
        <CharString name="bullet">
          -136 175 318 hstem
          100 319 vstem
          259 175 rmoveto
          90 70 69 89 90 -70 70 -90 -89 -70 -70 -90 -89 70 -69 89 hvcurveto
          endchar
        </CharString>
        <CharString name="c">
          154 callgsubr
          199 callgsubr
          -41 callgsubr
          endchar
        </CharString>
        <CharString name="cacute">
          154 callgsubr
          199 callgsubr
          -53 250 -41 callgsubr
          hintmask 01100100
          147 451 -80 callsubr
          endchar
        </CharString>
        <CharString name="caron">
          591 callgsubr
          171 720 rmoveto
          -87 callgsubr
        </CharString>
        <CharString name="ccaron">
          154 callgsubr
          199 callgsubr
          -85 320 -41 callgsubr
          276 439 rmoveto
          hintmask 01100100
          -87 callgsubr
        </CharString>
        <CharString name="ccedilla">
          -48 -274 103 42 92 -92 289 -289 344 -196 -21 348 222 -167 167 199 callgsubr
          -36 193 callgsubr
          hintmask 1100110101000000
          24 281 rmoveto
          hintmask 1100110001000000
          -157 91 -104 135 -22 vhcurveto
          -127 vlineto
          hintmask 1100110000010000
          145 callsubr
          hintmask 1100110010000000
          433 callsubr
          hintmask 1100110000100000
          538 callsubr
          hintmask 1100110001000000
          496 callgsubr
          35 vlineto
          hintmask 1001010001000000
          112 20 80 78 24 119 rrcurveto
          -208 hlineto
          hintmask 1010001101000000
          -35 -11 -22 -20 -37 hhcurveto
          -48 -32 40 81 80 32 40 48 hvcurveto
          hintmask 1100110001000000
          37 22 -21 -34 11 hvcurveto
          208 hlineto
          141 -28 -104 81 -142 hhcurveto
          hintmask 1100110101000000
          -167 434 callgsubr
          hvcurveto
          endchar
        </CharString>
        <CharString name="cdotaccent">
          154 callgsubr
          52 160 199 callgsubr
          -5 160 hintmask 01101100
          24 281 rmoveto
          -179 117 471 callgsubr
          142 104 83 139 28 vhcurveto
          -208 hlineto
          hintmask 10011100
          -35 -11 -22 -20 -37 hhcurveto
          -48 -32 40 81 80 32 40 48 hvcurveto
          hintmask 01101100
          37 22 -21 -34 11 hvcurveto
          208 hlineto
          141 -28 -104 81 -142 hhcurveto
          -167 434 callgsubr
          hvcurveto
          hintmask 01101010
          274 339 -98 callsubr
          endchar
        </CharString>
        <CharString name="cedilla">
          -327 -269 103 42 92 -92 131 hstemhm
          10 193 callgsubr
          hintmask 10101000
          188 7 rmoveto
          -116 -131 hlineto
          hintmask 10100010
          145 callsubr
          hintmask 10110000
          433 callsubr
          hintmask 10100100
          538 callsubr
          hintmask 11001000
          496 callgsubr
          endchar
        </CharString>
        <CharString name="cent">
          -50 560 198 rmoveto
          -180 hlineto
          -31 -8 -31 -15 -33 hhcurveto
          -58 -32 38 64 65 32 39 58 33 28 -14 -32 11 hvcurveto
          180 hlineto
          -8 123 -100 71 -118 9 rrcurveto
          78 -62 -78 vlineto
          -150 -13 -91 -95 -152 vvcurveto
          -152 91 -96 150 -13 vhcurveto
          -78 62 78 vlineto
          118 9 100 72 8 123 rrcurveto
          endchar
        </CharString>
        <CharString name="circumflex">
          591 callgsubr
          330 730 -78 callsubr
          endchar
        </CharString>
        <CharString name="colon">
          -353 -8 203 199 203 hstem
          36 229 vstem
          265 395 callsubr
          402 vmoveto
          209 callgsubr
        </CharString>
        <CharString name="colon.ss01">
          -335 0 193 205 193 hstem
          64 198 vstem
          64 hmoveto
          173 callgsubr
          205 vmoveto
          173 callgsubr
          endchar
        </CharString>
        <CharString name="comma">
          -341 -124 292 hstem
          36 231 vstem
          36 -124 529 callgsubr
        </CharString>
        <CharString name="comma.ss01">
          -395 -193 73 75 172 hstemhm
          27 193 -112 112 hintmask 11100000
          27 127 rmoveto
          -172 vlineto
          hintmask 11010000
          81 -14 hlineto
          -50 -21 -11 -34 vhcurveto
          -73 vlineto
          hintmask 11100000
          590 callgsubr
          endchar
        </CharString>
        <CharString name="copyright">
          120 -7 61 -61 139 172 102 172 138 -60 60 hstemhm
          34 65 -65 132 511 64 hintmask 10101101
          34 356 rmoveto
          -212 144 -151 210 210 143 151 212 212 -143 148 -210 -210 -144 -148 -212 vhcurveto
          643 hmoveto
          -182 -111 -120 -178 -179 -110 120 182 182 110 118 179 178 111 -118 -182 vhcurveto
          hintmask 01110011
          -76 50 rmoveto
          -165 hlineto
          23 -7 -17 19 -29 hhcurveto
          -38 -24 -30 -63 -63 24 -30 38 31 14 20 22 8 hvcurveto
          165 hlineto
          -105 -18 -86 -67 -107 hhcurveto
          -131 -93 86 137 137 93 86 131 107 86 -65 -107 18 hvcurveto
          endchar
        </CharString>
        <CharString name="currency">
          -65 194 114 140 112 hstem
          79 152 132 152 vstem
          363 377 rmoveto
          -49 -33 -20 -34 -34 -31 20 49 50 31 21 35 34 32 -21 -50 vhcurveto
          94 -233 rmoveto
          73 74 -51 52 rlineto
          23 29 13 37 43 vvcurveto
          44 -13 37 -24 29 vhcurveto
          52 52 -73 74 -68 -68 rlineto
          8 -28 -31 5 -33 hhcurveto
          -35 -31 -5 -9 -29 hvcurveto
          -69 69 -73 -74 55 -55 rlineto
          -23 -28 -13 -36 -43 vvcurveto
          -42 12 -37 23 -29 vhcurveto
          -54 -53 73 -74 66 66 rlineto
          -10 29 32 -6 36 hhcurveto
          35 32 5 10 29 hvcurveto
          endchar
        </CharString>
        <CharString name="d">
          25 593 callsubr
          172 -20 199 callgsubr
          203 177 callgsubr
          hintmask 10111100
          440 callsubr
          hintmask 01111100
          463 callsubr
          hintmask 10111100
          -134 101 callsubr
          hintmask 10111010
          353 callsubr
        </CharString>
        <CharString name="dagger">
          31 -268 1059 -1038 -21 688 141 hstemhm
          51 584 -381.5 177.5 -177.5 381.5 hintmask 01101000
          421 547 rmoveto
          hintmask 10001000
          20 244 rlineto
          hintmask 10000100
          -197 hlineto
          hintmask 01100100
          19 -244 rlineto
          hintmask 01110000
          -212 14 rlineto
          -148 vlineto
          hintmask 01101000
          212 14 -19 -695 rlineto
          197 hlineto
          -20 695 rlineto
          hintmask 01110000
          214 -14 rlineto
          148 vlineto
          endchar
        </CharString>
        <CharString name="daggerdbl">
          30 -268 372 -134.5 134.5 316 141 -141 371 hstemhm
          50 371 -158 206 callgsubr
          372 hintmask 10100010
          635 561 rmoveto
          -214 -14 rlineto
          hintmask 10010010
          19 244 rlineto
          -197 hlineto
          hintmask 10100010
          20 -244 rlineto
          hintmask 10101000
          -213 14 rlineto
          -148 vlineto
          hintmask 10100100
          213 14 rlineto
          -330 vlineto
          hintmask 10101000
          -213 14 rlineto
          hintmask 01101000
          -148 vlineto
          213 13 rlineto
          hintmask 10101000
          -20 -244 rlineto
          197 hlineto
          hintmask 01101000
          -19 244 rlineto
          hintmask 01100010
          214 -13 rlineto
          hintmask 10100010
          148 vlineto
          hintmask 10100100
          -214 -14 rlineto
          330 vlineto
          hintmask 10100010
          214 -14 rlineto
          endchar
        </CharString>
        <CharString name="danda">
          -292 21 -21 740 -20 hstem
          144 179 513 callgsubr
          endchar
        </CharString>
        <CharString name="dcaron">
          203 593 callsubr
          -118 72 84 134 199 callgsubr
          203 177 callgsubr
          58 166 -99 99 hintmask 1010101010000000
          682 740 rmoveto
          -134 vlineto
          hintmask 1001101001000000
          67 -15 hlineto
          -47 -19 -22 -35 vhcurveto
          -72 vlineto
          hintmask 1001101010000000
          105 279 callgsubr
          hintmask 1010111010000000
          -801 -459 481 callgsubr
          56 35 50 29 vhcurveto
          hintmask 0110101010000000
          463 callsubr
          hintmask 1010111010000000
          -134 101 callsubr
          hintmask 1010110110000000
          353 callsubr
        </CharString>
        <CharString name="dcroat">
          43 593 callsubr
          24 88 -88 148 199 callgsubr
          203 177 callgsubr
          hintmask 10101110
          440 callsubr
          hintmask 01001010
          -78 197 592 62 vlineto
          hintmask 10010010
          88 -62 vlineto
          hintmask 10001010
          60 -197 vlineto
          hintmask 10010010
          -60 -65 vlineto
          hintmask 10001010
          -88 65 vlineto
          hintmask 10101010
          -108 vlineto
          51 -31 -58 33 -74 hhcurveto
          hintmask 10101110
          -134 101 callsubr
          hintmask 10101101
          353 callsubr
        </CharString>
        <CharString name="degree">
          -175 347 105 157 103 hstem
          24 151 130 151 vstem
          24 531 rmoveto
          -112 90 -72 129 128 85 72 112 114 -87 67 -128 -129 -88 -67 -114 vhcurveto
          281 -1 rmoveto
          -56 -32 -22 -30 -32 -36 22 56 56 35 23 31 30 34 -23 -56 vhcurveto
          endchar
        </CharString>
        <CharString name="dieresis">
          -263 620 160 hstem
          10 287 callgsubr
          vstem
          89 620 -99 callsubr
          endchar
        </CharString>
        <CharString name="divide">
          -74 11 203 43 177 42 203 hstemhm
          37 510 -366 229 hintmask 01010000
          585 callgsubr
          hintmask 11101000
          373 -322 rmoveto
          -73 callsubr
          465 vmoveto
          209 callgsubr
        </CharString>
        <CharString name="divide.ss01">
          -74 19 194 44 177 44 193 hstem
          192 198 vstem
          585 callgsubr
          155 -415 rmoveto
          198 194 -198 hlineto
          265 vmoveto
          173 callgsubr
          endchar
        </CharString>
        <CharString name="dollar">
          6 -87 304 -224 224 -203 -21 23 -21 502 218 -218 299 hstemhm
          37 209 -207 209 44 63 38 211 -197 208 hintmask 1000100010000000
          292 -87 rmoveto
          63 hlineto
          hintmask 0010100010100000
          80 vlineto
          168 6 92 94 113 vvcurveto
          161 -151 31 -109 33 vhcurveto
          127 vlineto
          hintmask 0001100011000000
          20 -9 15 -19 3 -33 rrcurveto
          211 hlineto
          -9 133 -94 74 -146 11 rrcurveto
          hintmask 0001010010000000
          81 -63 vlineto
          hintmask 0100101010000000
          -81 vlineto
          -141 -7 -114 -75 -129 vvcurveto
          -164 146 -32 109 -30 vhcurveto
          -128 vlineto
          hintmask 0100100110000000
          -25 10 -16 21 -3 36 rrcurveto
          -209 hlineto
          hintmask 0001100110100000
          6 -135 106 -74 141 -13 rrcurveto
          115 206 rmoveto
          -30 -20 -20 -32 -6 vhcurveto
          113 vlineto
          31 -13 21 -17 -27 vvcurveto
          hintmask 0001101010000000
          -161 312 rmoveto
          29 17 17 29 5 vhcurveto
          -110 vlineto
          -28 14 -18 18 27 vvcurveto
          endchar
        </CharString>
        <CharString name="dotaccent">
          -475 620 160 hstem
          10 160 vstem
          89 620 -98 callsubr
          endchar
        </CharString>
        <CharString name="dotlessi">
          -308 21 355 callgsubr
          hstem
          75 197 vstem
          221 callsubr
          endchar
        </CharString>
        <CharString name="dottedcircle">
          -4 -9 84 -70 84 -52 84 -40 84 -32 84 -23 84 -25 84 -22 84 -32 84 -37 84 -57 84 -69 84 hstemhm
          50 86 -71 86 -56 86 -40 86 -34 86 -21 86 -27 86 -24 86 -33 86 -47 86 -52 86 -76 86 hintmask 000100001000001000000100
          557 409 -72 callgsubr
          -376 -286 -72 callgsubr
          hintmask 010001000000100010000000
          98 -76 -72 callgsubr
          -143 189 -72 callgsubr
          hintmask 100000010000010000100000
          267 -203 -72 callgsubr
          -252 324 -72 callgsubr
          hintmask 001000000100000100001000
          367 -278 -72 callgsubr
          -291 377 -72 callgsubr
          hintmask 000010000001000001000010
          364 -281 -72 callgsubr
          -247 323 -72 callgsubr
          hintmask 000000100010000000010001
          257 -203 -72 callgsubr
          -136 188 -72 callgsubr
          endchar
        </CharString>
        <CharString name="doubledanda">
          1 21 -21 740 -20 hstem
          144 179 112 180 513 callgsubr
          112 hmoveto
          -740 180 740 vlineto
          endchar
        </CharString>
        <CharString name="dvA">
          188 -33 callsubr
          26 callsubr
          94 180 hintmask 0000101000010100
          196 callsubr
          hintmask 0100001010000100
          540 callsubr
          hintmask 0010001010000100
          63 callgsubr
          hintmask 0001001000000100
          180 callgsubr
          hintmask 1000001000100100
          -242 73 callgsubr
          -267 194 callsubr
          hintmask 1000010001001100
          -4 callsubr
          hintmask 0000100101001100
          88 callsubr
          endchar
        </CharString>
        <CharString name="dvAA">
          513 -33 callsubr
          26 callsubr
          94 180 147 180 hintmask 0000101000010110
          196 callsubr
          hintmask 0100001010000110
          540 callsubr
          hintmask 0010001010000110
          63 callgsubr
          hintmask 0001001000000110
          180 callgsubr
          hintmask 1000001000100110
          -242 180 590 147 130 callsubr
          -594 194 callsubr
          hintmask 1000010001001110
          -4 callsubr
          hintmask 0000100101001110
          88 callsubr
          endchar
        </CharString>
        <CharString name="dvAI">
          -2 19 -91 callsubr
          225 346 150 121 145 hstemhm
          76 180 85 450 callgsubr
          hintmask 01111001
          334 19 rmoveto
          hintmask 01111100
          601 callsubr
          hintmask 01111010
          -177 hlineto
          hintmask 10111010
          367 callgsubr
          hintmask 01111001
          452 callsubr
          hintmask 01111100
          -161 vlineto
          hintmask 01111001
          534 callgsubr
          67 79 150 -90 vlineto
          -128 235 145 callgsubr
          434 callsubr
          -422 -150 89 hlineto
          1 -323 rlineto
          -146 87 -102 171 vhcurveto
          endchar
        </CharString>
        <CharString name="dvAU">
          514 -33 callsubr
          50 612 callsubr
          26 callsubr
          94 180 -97 97 147 180 hintmask 100000101100000101000000
          769 hmoveto
          590 147 130 callsubr
          -98 vlineto
          326 -169 -28 15 -160 hhcurveto
          -56 -112 61 hlineto
          64 42 -1 -105 65 hvcurveto
          hintmask 100000101100000011000000
          48 -63 -25 0 -91 hhcurveto
          -53 -112 57 hlineto
          493 callsubr
          hintmask 100000101100100101000000
          -339 -350 -144 hlineto
          -14 10 -17 9 -19 5 rrcurveto
          4 vlineto
          hintmask 100001001101001101000000
          -4 callsubr
          hintmask 000010011101001101000000
          88 callsubr
          hintmask 000010101100010101000000
          -47 -144 47 hlineto
          54 24 -30 -35 hvcurveto
          hintmask 010000101110000101000000
          540 callsubr
          hintmask 001000101110000101000000
          63 callgsubr
          hintmask 000100101100000101000000
          180 callgsubr
          hintmask 100000101100000101000000
          -242 vlineto
          endchar
        </CharString>
        <CharString name="dvAbbreviationsign">
          -185 163 106 127 106 hstem
          62 108 130 109 vstem
          237 502 rmoveto
          -103 -72 -70 -100 -99 72 -70 103 102 70 70 99 100 -70 70 -102 hvcurveto
          -106 vmoveto
          36 27 -27 -37 -38 -27 -25 -36 -39 -28 26 37 37 28 27 39 hvcurveto
          endchar
        </CharString>
        <CharString name="dvAcandra">
          193 -33 callsubr
          70 133 -133 222 26 callsubr
          -59 154 -1 180 14 154 hintmask 000010101000010010000000
          196 callsubr
          hintmask 010000101010000010000000
          540 callsubr
          hintmask 001000101010000010000000
          63 callgsubr
          hintmask 000100101000000010000000
          180 callgsubr
          hintmask 100000101000100010000000
          -242 73 callgsubr
          -267 194 callsubr
          hintmask 100001001001001010000000
          -4 callsubr
          hintmask 000010010101001011000000
          88 callsubr
          674 557 rmoveto
          -154 hlineto
          hintmask 100000101000000011000000
          613 callgsubr
          hintmask 100000100100000100000000
          335 callsubr
          hintmask 100000101000000100000000
          404 callsubr
          hintmask 000010010101001011000000
          318 callgsubr
        </CharString>
        <CharString name="dvAnusvara">
          -655 806 205 hstem
          -268 206 vstem
          -62 908 -26 callsubr
        </CharString>
        <CharString name="dvAnusvara.amI">
          -655 806 205 hstem
          33 206 vstem
          239 908 -26 callsubr
        </CharString>
        <CharString name="dvAvagraha">
          -52 42 151 327 152 hstemhm
          51 464 -400 185 -185 410 -194 184 hintmask 11010100
          335 42 rmoveto
          103 77 55 99 hvcurveto
          180 -215 51 67 vvcurveto
          23 18 3 17 vhcurveto
          hintmask 11001000
          190 152 -235 hlineto
          hintmask 11010100
          -102 -73 -51 -99 hvcurveto
          -178 216 -53 -68 vvcurveto
          -20 -15 -10 -29 vhcurveto
          hintmask 11100000
          -236 -151 hlineto
          endchar
        </CharString>
        <CharString name="dvB">
          -277 48 363 callsubr
          hintmask 11101100
          584 296 rmoveto
          126 -84 112 -184 -65 callsubr
          181 87 113 135 vhcurveto
          -263 117 -97 callgsubr
          hintmask 11110000
          267 177 -96 callsubr
          -602 -13 callsubr
          336 -419 rmoveto
          hintmask 11101100
          -41 callsubr
          192 -137 rlineto
          hintmask 11110000
          -14 -20 -24 -8 -29 hhcurveto
          endchar
        </CharString>
        <CharString name="dvBA">
          32 0 340 callgsubr
          242 115 57 638 callgsubr
          92 callsubr
          hintmask 01111110
          615 hmoveto
          242 callgsubr
          -715 -150 455 149 callgsubr
          -141 -103 -98 -139 584 callgsubr
          hvcurveto
          -105 vlineto
          -112 418 rmoveto
          hintmask 01111101
          75 47 -55 -67 -13 -2 -13 -4 -12 hvcurveto
          -190 137 rlineto
          hintmask 01111110
          -12 callsubr
          hintmask 10011110
          1 -242 -74 callsubr
          endchar
        </CharString>
        <CharString name="dvBH">
          -105 49 152 120 147 46 235 -153 138 callsubr
          -169 372 hintmask 11101010
          276 201 -50 callgsubr
          vlineto
          hintmask 11101001
          203 147 hlineto
          hintmask 11100110
          -203 36 hlineto
          -3 callgsubr
          hintmask 11010110
          -58 callsubr
          -53 vlineto
          hintmask 11101010
          -5 callsubr
          endchar
        </CharString>
        <CharString name="dvBHA">
          217 494 callsubr
          120 147 46 166 callgsubr
          110 181 hintmask 1110101011000000
          276 201 -50 callgsubr
          110 -321 181 590 89 150 -270 -272 -110 36 vlineto
          hintmask 1111000111000000
          -3 callgsubr
          hintmask 1110010111000000
          -58 callsubr
          -53 vlineto
          hintmask 1110101011000000
          -5 callsubr
          endchar
        </CharString>
        <CharString name="dvBH_LA">
          811 17 156 -124 152 34 415 callgsubr
          -226 166 callgsubr
          85 889 -883 183 -183 300 36 149 37 300 -293 178 -178 354 -244 183 hintmask 010010001010101010100000
          276 201 -50 callgsubr
          94 vlineto
          -2 -15 -1 -15 -17 vvcurveto
          hintmask 100010001010101010100000
          -149 94 -108 171 vhcurveto
          hintmask 100010001010100110100000
          8 12 1 1 15 hvcurveto
          156 vlineto
          hintmask 100000100010101010100000
          -1 -9 -12 -1 -6 hhcurveto
          -52 -38 35 63 53 27 35 52 55 19 -48 -49 hvcurveto
          hintmask 100100000010101010100000
          121 callsubr
          hintmask 100000100010101010001000
          -40 callgsubr
          50 27 -36 -52 -63 -38 -35 -53 vhcurveto
          hintmask 100010001010101011000000
          -5 -11 1 1 -10 hvcurveto
          -156 vlineto
          -1 15 12 -1 7 hhcurveto
          hintmask 100010001010101010001000
          19 callsubr
          hintmask 100010001010101010100000
          110 -49 70 -66 36 vhcurveto
          100 vlineto
          hintmask 100010001010101010010000
          176 150 hlineto
          hintmask 100010001010110000000000
          -889 -32 callgsubr
          hintmask 101000001010101010100000
          535 583 callgsubr
          hintmask 100001001010101010100000
          60 -28 -54 44 -93 hhcurveto
          hintmask 100010010001101010100000
          -55 -54 -16 -34 -43 hvcurveto
          -173 36 hlineto
          -3 callgsubr
          hintmask 100010000101101010100000
          -58 callsubr
          -53 vlineto
          hintmask 010010001010101010100000
          -5 callsubr
          endchar
        </CharString>
        <CharString name="dvBH_NA">
          729 494 callsubr
          -147 632 callsubr
          20 166 callgsubr
          91 162 141 142 88 181 hintmask 1100101010111100
          276 201 rmoveto
          -33 -27 20 39 hvcurveto
          hintmask 1101001010111100
          40 30 21 44 vhcurveto
          47 -48 hlineto
          hintmask 1100101010111100
          -42 -18 -30 -43 vhcurveto
          hintmask 1101001010111100
          344 callgsubr
          95 vlineto
          -3 -15 -1 -15 -17 vvcurveto
          hintmask 1010101010111100
          -142 110 -78 121 114 100 532 callsubr
          vhcurveto
          109 282 callgsubr
          87 150 -801 -150 533 -96 -288 hlineto
          hintmask 1101010001111100
          -46 -43 -9 -17 -38 hvcurveto
          -209 36 hlineto
          -3 callgsubr
          hintmask 1101000101111100
          -58 callsubr
          -53 vlineto
          hintmask 1101001010111100
          -5 callsubr
          hintmask 1010101010111100
          253 -9 390 callgsubr
        </CharString>
        <CharString name="dvBH_R">
          -105 -94 312 -147 147 113 144 42 232 -153 153 hstemhm
          49 165 -144 177 93 162 -162 370 hintmask 0111010100000000
          161 callgsubr
          226 84 rmoveto
          29 vlineto
          hintmask 0111010010000000
          208 144 hlineto
          hintmask 0111001100000000
          -208 29 hlineto
          160 callsubr
          hintmask 0110101100000000
          270 callsubr
          -62 -56 vlineto
          hintmask 0111010100000000
          394 callsubr
          hintmask 1011010100000000
          -34 -396 rmoveto
          hintmask 1011010010000000
          242 244 rlineto
          162 vlineto
          -437 -406 rlineto
          endchar
        </CharString>
        <CharString name="dvBH_RA">
          217 -94 312 -197 -21 71 147 113 144 42 360 callgsubr
          143 172 -162 162 hintmask 0111010101100000
          161 callgsubr
          226 84 rmoveto
          29 143 -80 vlineto
          hintmask 1001010101100000
          -372 -345 rlineto
          195 hlineto
          hintmask 0111010101010000
          607 callsubr
          hintmask 0111010101100000
          162 590 89 150 -261 -265 -143 29 hlineto
          hintmask 0111100011100000
          160 callsubr
          hintmask 0111001011100000
          270 callsubr
          -62 -56 vlineto
          hintmask 0111010101100000
          394 callsubr
          endchar
        </CharString>
        <CharString name="dvBH_R_YA">
          641 -94 312 -218 189 callsubr
          71 147 -146 150 109 137 49 360 callgsubr
          82 178 -170 321 -178 13 callsubr
          hintmask 0011010101010011
          161 callgsubr
          hintmask 0100010101011001
          620 4 rmoveto
          -86 -46 49 62 -2 hvcurveto
          hintmask 0011010101010011
          113 16 38 75 338 callsubr
          hintmask 0100010101011001
          305 callsubr
          hintmask 0011010101011001
          -394 80 rmoveto
          29 82 vlineto
          2 -42 8 -38 15 -33 rrcurveto
          hintmask 1000010101010011
          -336 -312 rlineto
          195 hlineto
          hintmask 0010110101010101
          219 214 rlineto
          -31 44 56 -17 68 hhcurveto
          84 62 26 41 41 hvcurveto
          -139 180 91 callgsubr
          -718 -13 callsubr
          hintmask 0011010101010011
          143 -38 hlineto
          -69 -25 -15 -72 vhcurveto
          -136 36 hlineto
          hintmask 0011011000110011
          160 callsubr
          hintmask 0011010010110011
          270 callsubr
          -69 -56 vlineto
          hintmask 0011010101010011
          -128 -107 -62 -134 -122 93 -79 137 hvcurveto
          hintmask 0011010101011001
          145 78 96 135 hvcurveto
          endchar
        </CharString>
        <CharString name="dvBH_VA">
          554 214 callgsubr
          -12 166 callgsubr
          86 344 callsubr
          178 hintmask 0101001010111000
          276 201 -50 callgsubr
          87 603 callsubr
          hintmask 0011001010111000
          367 callsubr
          hintmask 1000101010111000
          123 callsubr
          hintmask 1001010001111000
          -66 -53 -22 -36 -38 hvcurveto
          -153 36 hlineto
          -3 callgsubr
          hintmask 1001000101111000
          -58 callsubr
          -53 vlineto
          hintmask 0101001010111000
          -5 callsubr
          hintmask 1000101010111000
          360 -88 2 callgsubr
          53 38 579 callsubr
          endchar
        </CharString>
        <CharString name="dvBH_YA">
          641 158 callsubr
          49 152 -129 150 99 147 46 166 callgsubr
          86 321 -178 178 129 180 hintmask 0110101010101100
          276 201 -50 callgsubr
          78 vlineto
          hintmask 0101101010110100
          31 callsubr
          hintmask 0101101010101100
          220 callgsubr
          hintmask 0101110001101100
          -3 callgsubr
          hintmask 0101100101101100
          -58 callsubr
          -53 vlineto
          hintmask 0110101010101100
          -5 callsubr
          hintmask 1000101010101100
          390 -61 50 callsubr
          endchar
        </CharString>
        <CharString name="dvB_BA">
          429 0 539 callgsubr
          48 123 -122 127 237 121 -116 576 callgsubr
          322 -150 320 callgsubr
          247 92 callsubr
          hintmask 0110100101100000
          321 413 -97 callgsubr
          691 -413 rmoveto
          242 callgsubr
          -1112 -150 852 vlineto
          hintmask 0110010101100000
          149 callgsubr
          -70 -61 -24 -42 -43 hvcurveto
          hintmask 0110100111100000
          41 -44 -65 26 -89 hhcurveto
          -65 callsubr
          88 66 27 43 44 hvcurveto
          hintmask 0101100101100000
          -44 44 60 -25 70 hhcurveto
          265 callsubr
          hintmask 0110100111100000
          -516 171 -98 callgsubr
          hintmask 1000001001010000
          405 5 -74 callsubr
          -1 242 -26 callgsubr
          endchar
        </CharString>
        <CharString name="dvB_BHA">
          611 21 -21 48 123 -122 152 120 147 -55 121 56 336 callsubr
          150 534 157 callgsubr
          hintmask 1011010111000000
          670 389 callgsubr
          230 82 167 callgsubr
          hintmask 1101001111000000
          134 -52 111 -165 vhcurveto
          hintmask 1101010111000000
          574 callgsubr
          -22 hvcurveto
          -622 -150 616 1 hlineto
          67 -1 rlineto
          3 6 6 3 8 hhcurveto
          31 11 -25 -34 hvcurveto
          -69 -52 vlineto
          -51 -48 -10 -22 -39 hvcurveto
          hintmask 1100110111000000
          58 -42 -74 40 -109 hhcurveto
          -65 callsubr
          82 62 23 38 44 hvcurveto
          hintmask 1011010111000000
          -38 41 58 -22 71 hhcurveto
          150 76 90 144 hvcurveto
          hintmask 1100110111000000
          -579 130 -97 callgsubr
          1 -242 -98 callgsubr
          endchar
        </CharString>
        <CharString name="dvB_BH_RA">
          631 -94 312 -197 -21 48 123 -100 147 113 144 -62 121 56 336 callsubr
          150 537 164 142 173 -163 163 hintmask 0110011011100000
          321 413 -97 callgsubr
          1 -242 -98 callgsubr
          hintmask 0101101011100000
          349 47 rmoveto
          -36 -25 21 34 37 29 21 41 hvcurveto
          54 -39 hlineto
          -42 -17 -32 -46 vhcurveto
          -7 372 rmoveto
          4 6 7 2 10 hhcurveto
          34 13 -24 -35 hvcurveto
          -62 -55 vlineto
          -53 -49 -11 -22 -40 hvcurveto
          hintmask 0110011011100000
          55 -43 -72 37 -106 hhcurveto
          -65 callsubr
          89 66 27 44 44 hvcurveto
          hintmask 0101101011100000
          -31 40 54 -17 64 hhcurveto
          145 80 96 135 hvcurveto
          29 142 -79 vlineto
          hintmask 1000101011100000
          -373 -346 rlineto
          196 hlineto
          hintmask 0110101011010000
          607 callsubr
          hintmask 0110101011100000
          163 -46 callgsubr
          -260 -265 -142 29 hlineto
          hintmask 0110100111100000
          134 -53 111 -162 vhcurveto
          hintmask 0110101011100000
          -28 -26 -3 -6 -22 hvcurveto
          -621 -32 callgsubr
          endchar
        </CharString>
        <CharString name="dvB_DA">
          354 -39 236 -236 313 -226 123 -116 633 callgsubr
          -327 121 56 469 callsubr
          1036.5 -975.5 150 247 -25 callsubr
          hintmask 0100100110000000
          1022 408 callgsubr
          -1037 -32 callgsubr
          hintmask 0100100101110000
          751 -70 -26 hlineto
          -76 -66 -21 -39 -48 hvcurveto
          hintmask 0010001101101000
          45 -44 -67 29 -94 hhcurveto
          -65 callsubr
          84 63 24 40 45 hvcurveto
          hintmask 0001100101101000
          -39 39 54 -18 55 hhcurveto
          343 callsubr
          hvcurveto
          hintmask 0100100101101000
          151 callsubr
          hintmask 0100100101100100
          -167 hlineto
          hintmask 1000010001100100
          -57 callgsubr
          hintmask 0100010001110000
          189 hlineto
          hintmask 0010001101110000
          225 vlineto
          -597 -419 -77 callsubr
        </CharString>
</ttFont>
